<svg width="24" height="35" viewBox="0 0 24 35" fill="none" xmlns="http://www.w3.org/2000/svg">
<path d="M17.356 15.4465C16.2283 17.2733 14.3535 19.2024 12.07 18.8444C9.81462 18.4936 8.21473 16.3015 7.2562 14.3358C7.11524 14.0509 6.78399 14.0216 6.53026 14.1385C6.33292 14.2335 6.10033 14.0436 5.95937 13.9047C5.6704 13.627 5.5083 13.2325 5.39553 12.8525C5.26162 12.3921 5.09952 11.1572 5.72679 10.9599C6.02985 10.8649 6.13557 10.5873 6.09328 10.2877C6.09328 10.2877 6.09328 10.2877 6.09328 10.2804C6.051 9.98076 5.69155 9.82731 5.44487 9.90038C5.1418 9.98807 5.03608 10.2804 5.07837 10.5726C5.07837 10.5726 5.07837 10.5726 5.07837 10.58C5.19819 10.3534 5.32505 10.1269 5.44487 9.90769C4.11985 10.3315 4.07756 12.1218 4.40881 13.2617C4.74712 14.4089 5.80432 15.7023 7.06591 15.0885C6.82628 15.0227 6.58664 14.957 6.33996 14.8912C7.4465 17.1637 9.32831 19.5239 11.8938 19.9185C14.6355 20.3423 16.6266 18.7355 18.001 16.4995C18.3745 15.9077 17.7225 14.8546 17.356 15.4465Z" fill="#017DB9"/>
<path d="M24 33.3598C24 31.6082 24 29.8494 24 28.0979C24 27.3771 24 26.6563 24 25.9355C24 24.3929 23.1819 22.9874 21.8506 22.1585C21.0325 21.6467 20.0583 21.5314 19.1286 21.3512C18.3254 21.1926 17.5296 21.0412 16.7264 20.8826C16.8379 20.9619 16.9495 21.0484 17.061 21.1277C16.8231 20.7889 16.6074 20.4141 16.3248 20.1042C15.9157 19.6573 15.0307 19.5996 14.8224 20.2555C14.6439 20.825 14.4729 21.4016 14.2944 21.971C13.6325 24.1262 12.6619 25.8449 12 28.0001C11.7174 28.9155 11.7434 28.2675 11.4608 29.1901C11.8178 29.1901 12.1748 29.1901 12.5392 29.1901C11.498 25.7807 10.4568 24.3785 9.41556 20.9691C9.33375 20.7096 9.25937 20.4501 9.17756 20.1834C9.05113 19.7582 8.56771 19.7293 8.18841 19.787C7.91323 19.8303 7.71243 20.0681 7.55624 20.2699C7.348 20.5511 7.1472 20.8394 6.93895 21.1205C7.05051 21.0412 7.16207 20.9547 7.27363 20.8754C6.38116 21.0484 5.49613 21.2214 4.60366 21.3944C4.27642 21.4593 3.94174 21.5241 3.6145 21.589C2.78153 21.7476 2.02293 22.1585 1.40564 22.7135C0.431361 23.5856 0 24.8326 0 26.094C0 26.9662 0 27.8312 0 28.7034C0 30.2531 0 31.8028 0 33.3525C0 34.0517 1.11559 34.0517 1.11559 33.3525C1.11559 31.601 1.11559 29.8422 1.11559 28.0907C1.11559 27.3699 1.11559 26.6491 1.11559 25.9283C1.11559 24.5155 2.02293 23.2325 3.40626 22.7567C3.80043 22.6198 4.23923 22.5621 4.65572 22.4828C5.27301 22.3603 5.89774 22.2449 6.51503 22.1224C6.86458 22.0575 7.22157 21.9855 7.57112 21.9206C7.8463 21.8701 8.0471 21.4737 8.19585 21.2719C8.2851 21.1493 8.37434 21.0196 8.46359 20.897C8.4859 20.861 8.51565 20.825 8.53796 20.7961C8.61233 20.6952 8.44871 20.8466 8.4859 20.8538C8.35947 20.7313 8.2256 20.6015 8.09916 20.479C9.14038 23.8884 10.1816 25.2906 11.2228 28.7C11.3046 28.9595 11.379 29.219 11.4608 29.4857C11.617 30.0046 12.3756 29.9974 12.5392 29.4857C13.5879 26.0763 14.6365 24.6741 15.6777 21.2647C15.7595 21.0052 15.8413 20.7457 15.9157 20.479C15.7893 20.6015 15.6554 20.7313 15.529 20.8538C15.5141 20.861 15.3951 20.688 15.5215 20.861C15.5885 20.9619 15.6628 21.0628 15.7298 21.1565C15.8488 21.3295 15.9752 21.5025 16.0942 21.6683C16.3173 21.9855 16.8156 21.9927 17.1726 22.0575C18.132 22.2449 19.0989 22.4324 20.0583 22.6198C21.5606 22.9081 22.7282 24.0974 22.8695 25.5895C22.929 26.2238 22.8844 26.8797 22.8844 27.514C22.8844 29.4602 22.8844 31.3992 22.8844 33.3453C22.8844 34.0589 24 34.0589 24 33.3598Z" fill="#017DB9"/>
<path d="M8.5854 26.6811C8.56401 27.3965 8.01523 27.9419 7.29539 27.9631C6.57556 27.9844 6.02677 27.3682 6.00539 26.6811C5.98401 25.9658 6.60407 25.4204 7.29539 25.3992C8.02236 25.385 8.57114 26.0012 8.5854 26.6811C8.60678 27.3682 9.67584 27.3682 9.65446 26.6811C9.61882 25.385 8.60678 24.3722 7.29539 24.3367C5.99114 24.3013 4.97196 25.4346 4.93633 26.6811C4.90069 27.9773 6.04103 28.9901 7.29539 29.0255C8.59965 29.0609 9.61882 27.9277 9.65446 26.6811C9.67584 25.9941 8.60678 26.0012 8.5854 26.6811ZM16.9241 29.9959C16.4109 29.9746 16.3896 29.5284 16.3896 29.1388C16.3896 28.6076 16.3896 28.0764 16.3896 27.5452C16.3896 27.2053 16.3896 26.8653 16.3896 26.5253C16.3896 25.8029 16.8528 25.1442 17.5299 24.8892C18.2568 24.62 19.0123 24.8679 19.5112 25.4275C19.8462 25.8029 19.9032 26.2845 19.9032 26.759C19.9032 27.6585 19.9032 28.5581 19.9032 29.4505C19.9032 29.755 19.668 29.9746 19.3687 29.9888C18.6845 30.0171 18.6773 31.0795 19.3687 31.0512C20.2382 31.0087 20.9723 30.35 20.9723 29.4576C20.9723 29.0963 20.9723 28.7351 20.9723 28.3739C20.9723 27.3398 21.1148 26.1995 20.6587 25.2433C19.8961 23.6426 17.6938 23.2672 16.361 24.358C15.7054 24.8963 15.3419 25.6825 15.3276 26.5253C15.3205 26.8653 15.3276 27.2053 15.3276 27.5452C15.3276 28.1543 15.3276 28.7564 15.3276 29.3655C15.3276 30.3004 15.9833 31.0158 16.9312 31.0583C17.6154 31.0866 17.6154 30.0242 16.9241 29.9959ZM9.65446 6.24032C9.88965 6.30406 10.1248 6.39614 10.3529 6.48113C10.4099 6.50238 10.4598 6.52363 10.5168 6.54488C10.638 6.59446 10.4313 6.50946 10.5952 6.58029C10.7378 6.64404 10.8803 6.70778 11.0229 6.77861C11.3436 6.93443 11.6643 7.10441 11.9708 7.28857C13.61 8.25182 14.9926 9.61879 15.9049 11.3399C17.0595 13.5214 17.2234 16.0783 16.8528 18.4793C16.7673 19.0105 17.3161 19.3576 17.7437 18.9963C18.6987 18.196 19.4613 17.0698 20.0244 15.972C21.3357 13.4222 21.4997 10.5112 20.6587 7.79144C19.6823 4.6467 17.6297 1.6507 14.4296 0.482047C12.206 -0.332469 9.52617 -0.112904 7.50208 1.12658C6.51141 1.72861 5.59202 2.68478 5.39959 3.8676C5.47799 3.76136 5.56351 3.65512 5.64191 3.54888C5.13589 3.88885 4.82942 4.46963 4.60848 5.01501C3.98843 6.57321 4.245 8.42181 4.62986 10.0013C4.69401 10.2775 5.01473 10.4546 5.28556 10.3696C7.42368 9.72503 9.21258 7.89768 10.2531 6.00659C10.5881 5.40456 9.66158 4.86627 9.32661 5.4683C8.64241 6.70778 7.70876 7.77728 6.52567 8.56346C6.16219 8.80427 5.78445 9.01676 5.38533 9.19382C5.35683 9.20799 5.33545 9.21507 5.30694 9.22924C5.17865 9.2859 5.41384 9.18674 5.29981 9.23632C5.24279 9.25757 5.1929 9.27882 5.13589 9.30007C5.09312 9.31423 5.04324 9.33548 5.00047 9.34965C5.22141 9.47005 5.44235 9.59754 5.65616 9.71795C5.32119 8.32265 5.10738 6.78569 5.59915 5.39747C5.65616 5.24874 5.6918 5.15666 5.80583 4.95834C5.84147 4.88752 5.88423 4.82377 5.92699 4.76003C5.94837 4.7317 5.96976 4.70336 5.98401 4.67503C6.04103 4.59712 5.90561 4.77419 5.99826 4.66087C6.05528 4.59004 6.11942 4.5263 6.18357 4.46255C6.31186 4.34214 6.10517 4.51213 6.17644 4.46255C6.42589 4.29256 6.42589 4.03759 6.51141 3.77552C6.52567 3.73303 6.53992 3.68345 6.5613 3.64095C6.61832 3.49221 6.51854 3.73303 6.58268 3.59137C6.63257 3.48513 6.68246 3.38597 6.74661 3.28681C6.95329 2.93976 7.22412 2.66353 7.58048 2.36606C8.30744 1.77111 9.33374 1.38156 10.3173 1.19032C12.8616 0.701612 15.4345 1.6932 17.1664 3.58429C18.378 4.91585 19.2261 6.66528 19.725 8.37931C20.1313 9.78878 20.2524 11.2832 20.0101 12.7352C19.7535 14.2226 19.1406 15.6037 18.264 16.829C18.0217 17.1619 17.7437 17.509 17.3945 17.8702C17.2662 18.0048 17.1379 18.1323 16.9954 18.2527C17.2947 18.4226 17.594 18.5997 17.8862 18.7697C18.3281 15.9224 18.0929 12.9902 16.6319 10.4546C15.6412 8.73345 14.1445 7.33815 12.434 6.3324C11.6572 5.8791 10.809 5.46122 9.93241 5.22749C9.27672 5.03625 8.99164 6.05617 9.65446 6.24032Z" fill="#017DB9"/>
<path d="M9.00037 20.4755C9.00037 19.4944 9.00037 18.5134 9.00037 17.5251C9.00037 16.8254 8.00037 16.8254 8.00037 17.5251C8.00037 18.5062 8.00037 19.4872 8.00037 20.4755C8.00037 21.1752 9.00037 21.1752 9.00037 20.4755Z" fill="#017DB9"/>
<path d="M16.1504 20.6074C16.1504 19.8713 16.1504 19.1298 16.1504 18.3938C16.1504 17.8687 15.0703 17.8687 15.0703 18.3938C15.0703 19.1298 15.0703 19.8713 15.0703 20.6074C15.0703 21.127 16.1504 21.127 16.1504 20.6074Z" fill="#017DB9"/>
<path d="M8.00012 24.5544C8.00012 23.52 8.00012 22.4855 8.00012 21.4511C8.00012 20.8502 7.00012 20.8502 7.00012 21.4511C7.00012 22.4855 7.00012 23.52 7.00012 24.5544C7.00012 25.1491 8.00012 25.1491 8.00012 24.5544Z" fill="#017DB9"/>
<path d="M18.5001 23.7774C18.5001 23.2602 18.5001 22.743 18.5001 22.2257C18.5001 21.9253 17.5001 21.9253 17.5001 22.2257C17.5001 22.743 17.5001 23.2602 17.5001 23.7774C17.5001 24.0747 18.5001 24.0747 18.5001 23.7774Z" fill="#017DB9"/>
<path d="M23.3452 32.9659C20.393 32.9659 17.4407 32.9659 14.4813 32.9659C10.4129 32.9659 6.34454 32.9659 2.27618 32.9659C1.91615 32.9659 1.54892 32.9659 1.18889 32.9659C0.490424 32.9659 0.490424 34.046 1.18889 34.046C4.14115 34.046 7.09341 34.046 10.0529 34.046C14.1212 34.046 18.1896 34.046 22.258 34.046C22.618 34.046 22.9852 34.046 23.3452 34.046C24.0437 34.046 24.0437 32.9659 23.3452 32.9659Z" fill="#017DB9"/>
<path d="M5.54234 14.1176C5.54234 14.1176 5.77809 16.6469 5.54234 18.2544C5.32202 19.7567 4.50098 22.0005 4.50098 22.0005" stroke="#017DB9" stroke-linecap="round"/>
<path d="M20.6174 22.1329L19.7633 16.2349" stroke="#017DB9" stroke-linecap="round"/>
</svg>
