<svg width="30" height="44" viewBox="0 0 30 44" fill="none" xmlns="http://www.w3.org/2000/svg">
<path d="M13.9368 32.7758L13.9395 32.7761C20.1538 33.3663 25.4568 28.3083 25.4568 22V18.6982C25.4568 17.7298 26.1744 16.9285 27.1666 16.9285C28.0843 16.9285 28.8763 17.7357 28.8763 18.6982V22C28.8763 29.2441 23.5879 35.2611 16.8906 36.2362L16.7097 36.2625V36.4453V39.1693V39.3806H16.921H20.7631C21.6809 39.3806 22.4728 40.1878 22.4728 41.1503C22.4728 42.184 21.6923 42.9201 20.6831 42.9201H9.15686C8.25571 42.9201 7.52718 42.0482 7.52718 41.1503C7.52718 40.1757 8.25043 39.3806 9.15686 39.3806H13.079H13.2903V39.1693V36.2802V36.0965L13.1084 36.0709C6.1831 35.0971 1.12373 28.5958 1.12373 21.3397V18.6982C1.12373 17.7298 1.84127 16.9285 2.83345 16.9285C3.75122 16.9285 4.54317 17.7357 4.54317 18.6982V21.5873C4.54317 27.209 8.4508 32.1847 13.9368 32.7758ZM22.4728 22C22.4728 26.2643 19.1195 29.713 15 29.713C10.8805 29.713 7.52718 26.2643 7.52718 22V8.79289C7.52718 4.52856 10.8805 1.07994 15 1.07994C19.1181 1.07994 22.4728 4.60966 22.4728 8.79289V22ZM15 4.61944C12.7132 4.61944 10.9466 6.53912 10.9466 8.79289V22C10.9466 24.3392 12.7161 26.1735 15 26.1735C17.2011 26.1735 19.0534 24.3421 19.0534 22V8.79289C19.0534 6.53621 17.2039 4.61944 15 4.61944Z" fill="url(#paint0_linear_21_297)" stroke="white" stroke-width="0.422628"/>
<defs>
<linearGradient id="paint0_linear_21_297" x1="32.6095" y1="43.1314" x2="8.66059" y2="5.0949" gradientUnits="userSpaceOnUse">
<stop stop-color="#006B9F"/>
<stop offset="1" stop-color="#28B1F4"/>
</linearGradient>
</defs>
</svg>
