<svg width="386" height="180" viewBox="0 0 386 180" fill="none" xmlns="http://www.w3.org/2000/svg">
<g filter="url(#filter0_d_10_743)">
<path d="M11 23C11 16.3726 16.3726 11 23 11H111C117.627 11 123 16.3726 123 23V157C123 163.627 117.627 169 111 169H23C16.3726 169 11 163.627 11 157V23Z" fill="white"/>
</g>
<g filter="url(#filter1_d_10_743)">
<path d="M137 23C137 16.3726 142.373 11 149 11H237C243.627 11 249 16.3726 249 23V157C249 163.627 243.627 169 237 169H149C142.373 169 137 163.627 137 157V23Z" fill="white"/>
</g>
<g filter="url(#filter2_d_10_743)">
<path d="M263 23C263 16.3726 268.373 11 275 11H363C369.627 11 375 16.3726 375 23V157C375 163.627 369.627 169 363 169H275C268.373 169 263 163.627 263 157V23Z" fill="white"/>
</g>
<path d="M73.3813 60.5506V60.7129H73.5436H74.3251C74.7335 60.7129 75.001 60.7916 75.1797 60.9144C75.3555 61.0351 75.4647 61.2116 75.531 61.4491C75.5984 61.6904 75.6187 61.9851 75.6203 62.3283C75.6212 62.4988 75.6175 62.6781 75.6135 62.866L75.6133 62.877C75.6094 63.061 75.6054 63.2529 75.6054 63.4491V70.6955C75.6054 70.8917 75.6094 71.0836 75.6133 71.2676L75.6135 71.2786C75.6175 71.4666 75.6212 71.6458 75.6203 71.8163C75.6187 72.1595 75.5984 72.4542 75.531 72.6956C75.4647 72.933 75.3555 73.1096 75.1797 73.2303C75.001 73.353 74.7335 73.4317 74.3251 73.4317H58.6967C58.2751 73.4317 58.0016 73.3527 57.8208 73.2298C57.6437 73.1095 57.5362 72.9339 57.4729 72.6972C57.4084 72.4562 57.3925 72.1618 57.3946 71.8181C57.3955 71.6635 57.4 71.5019 57.4047 71.333C57.4052 71.3153 57.4057 71.2975 57.4062 71.2796C57.4114 71.092 57.4164 70.8961 57.4164 70.6955V63.4491C57.4164 63.2429 57.4114 63.0428 57.4062 62.852C57.4057 62.8327 57.4052 62.8135 57.4046 62.7943C57.3999 62.624 57.3955 62.462 57.3946 62.3074C57.3925 61.9614 57.4084 61.6687 57.4728 61.4308C57.5358 61.1977 57.6427 61.0266 57.8193 60.9095C58.0002 60.7895 58.2742 60.7129 58.6967 60.7129H59.4781H59.6404V60.5506V56.9274C59.6404 53.4497 62.6824 50.568 66.5109 50.568C70.2912 50.568 73.3813 53.4504 73.3813 56.9274V60.5506ZM70.418 60.7129H70.5803V60.5506V56.9274C70.5803 54.8337 68.7377 53.1419 66.5109 53.1419C64.2339 53.1419 62.4415 54.8349 62.4415 56.9274V60.5506V60.7129H62.6038H70.418Z" fill="url(#paint0_linear_10_743)" stroke="#EEF9FF" stroke-width="0.324639"/>
<path d="M60.0149 64.5145C60.0149 63.7461 60.6378 63.1232 61.4062 63.1232H71.6091C72.3775 63.1232 73.0004 63.7461 73.0004 64.5145V69.6159C73.0004 70.3843 72.3775 71.0072 71.6091 71.0072H61.4062C60.6378 71.0072 60.0149 70.3843 60.0149 69.6159V64.5145Z" fill="#F1FAFF"/>
<path d="M64.5246 93.4211L64.5233 93.4207C57.3964 90.7194 51.7352 86.1401 47.5348 79.6772C43.3317 73.2102 41.2319 66.2137 41.2319 58.6829V43.156C41.2319 41.9613 41.5731 40.8896 42.2563 39.9339L42.2565 39.9336C42.9396 38.9748 43.8224 38.2819 44.909 37.8513L64.5272 30.6024C64.5275 30.6023 64.5277 30.6022 64.5279 30.6021C65.2152 30.354 65.8745 30.2319 66.5072 30.2319C67.1399 30.2319 67.8005 30.354 68.4903 30.6021C68.4906 30.6022 68.4909 30.6024 68.4912 30.6025L88.1052 37.8512C89.1896 38.2843 90.0726 38.9772 90.7582 39.9339C91.4414 40.8896 91.7826 41.9613 91.7826 43.156V58.6829C91.7826 66.2137 89.6828 73.2102 85.4797 79.6772C81.2793 86.1401 75.6193 90.7194 68.4948 93.4207L68.4947 93.4207C68.1919 93.5356 67.8656 93.6225 67.5151 93.6806C67.1619 93.7392 66.826 93.7681 66.5072 93.7681C66.1909 93.7681 65.855 93.7392 65.4991 93.6806C65.1463 93.6225 64.8217 93.5357 64.5246 93.4211ZM66.4374 90.8062L66.5072 90.8282L66.5771 90.8062C72.9471 88.7952 78.2108 84.7732 82.3668 78.7535C86.5234 72.7329 88.6025 66.0406 88.6025 58.6829V43.0871C88.6025 42.5776 88.4603 42.1135 88.1756 41.7017C87.8913 41.2868 87.4899 40.9817 86.983 40.7831L86.9831 40.783L86.9788 40.7815L67.3642 33.5325C67.101 33.4241 66.8143 33.3716 66.5072 33.3716C66.2002 33.3716 65.9135 33.4241 65.6503 33.5325L46.0356 40.7815L46.0356 40.7814L46.0314 40.7831C45.5247 40.9816 45.1235 41.2866 44.8392 41.7013C44.5543 42.1132 44.412 42.5774 44.412 43.0871V58.6829C44.412 66.0406 46.491 72.7329 50.6477 78.7535C54.8037 84.7732 60.0674 88.7952 66.4374 90.8062Z" fill="url(#paint1_linear_10_743)" stroke="#EFF9FF" stroke-width="0.46377"/>
<path d="M309.602 63.2397L309.602 63.2398L309.606 63.2439L315.282 69.2959L315.403 69.4243L315.526 69.2985L330.17 54.35L330.171 54.3489C330.478 54.0302 330.886 53.9375 331.312 53.9666C331.841 54.0028 332.168 54.2568 332.364 54.5572C332.565 54.8651 332.628 55.2237 332.613 55.4488C332.593 55.735 332.453 56.0703 332.213 56.2779L332.213 56.2775L332.203 56.2871L316.369 72.3894C316.369 72.3897 316.368 72.3899 316.368 72.3902C315.923 72.831 315.387 72.8508 315.286 72.8439C314.861 72.8148 314.535 72.672 314.336 72.3863L314.329 72.3767L314.321 72.3681L307.551 65.0696L307.552 65.0692L307.541 65.0597C307.284 64.8246 307.186 64.4854 307.215 64.0632C307.266 63.3102 307.89 62.7162 308.706 62.772C309.044 62.7951 309.383 62.9899 309.602 63.2397Z" fill="url(#paint2_linear_10_743)" stroke="#EEF9FF" stroke-width="0.337737"/>
<path d="M316.473 95.9798L316.474 95.9803C316.783 96.0995 317.121 96.1897 317.488 96.2502C317.858 96.3112 318.207 96.3412 318.536 96.3412C318.868 96.3412 319.218 96.3111 319.585 96.2502C319.95 96.1898 320.289 96.0994 320.604 95.9798L320.604 95.9798C328.016 93.1695 333.905 88.4054 338.275 81.6817C342.647 74.9538 344.832 67.675 344.832 59.8403V43.6869C344.832 42.4441 344.477 41.3292 343.766 40.3349L316.473 95.9798ZM316.473 95.9798C309.058 93.1695 303.168 88.4054 298.798 81.6817C294.426 74.9538 292.241 67.675 292.241 59.8403V43.6869C292.241 42.444 292.596 41.3291 293.307 40.3347L293.307 40.3344M316.473 95.9798L293.307 40.3344M293.307 40.3344C294.018 39.3369 294.936 38.6161 296.067 38.1681M293.307 40.3344L296.067 38.1681M296.067 38.1681L316.477 30.6267C316.477 30.6266 316.477 30.6265 316.477 30.6264C317.192 30.3683 317.878 30.2412 318.536 30.2412C319.195 30.2412 319.882 30.3683 320.599 30.6264C320.6 30.6265 320.6 30.6266 320.6 30.6268L341.006 38.168C342.134 38.6185 343.053 39.3395 343.766 40.3347L296.067 38.1681ZM318.464 93.2598L318.536 93.2827L340.88 42.3103L341.079 42.1739C341.079 42.1737 341.079 42.1736 341.079 42.1734C340.783 41.742 340.366 41.4247 339.839 41.2182L339.839 41.2181L339.834 41.2165L319.428 33.6751C319.154 33.5623 318.856 33.5077 318.536 33.5077C318.217 33.5077 317.919 33.5623 317.645 33.675L297.239 41.2165L297.239 41.2165L297.234 41.2182C296.707 41.4247 296.29 41.742 295.994 42.1734C295.698 42.6019 295.55 43.0849 295.55 43.6152V59.8403C295.55 67.4949 297.713 74.4572 302.037 80.7207C306.361 86.9833 311.837 91.1677 318.464 93.2598Z" fill="url(#paint3_linear_10_743)" stroke="#EFF9FF" stroke-width="0.482482"/>
<path d="M190.473 95.9798L190.474 95.9803C190.783 96.0995 191.121 96.1897 191.488 96.2502C191.858 96.3112 192.207 96.3412 192.536 96.3412C192.868 96.3412 193.218 96.3111 193.585 96.2502C193.95 96.1898 194.289 96.0994 194.604 95.9798L194.604 95.9798C202.016 93.1695 207.905 88.4054 212.275 81.6817C216.647 74.9538 218.832 67.675 218.832 59.8403V43.6869C218.832 42.4441 218.477 41.3292 217.766 40.3349L190.473 95.9798ZM190.473 95.9798C183.058 93.1695 177.168 88.4054 172.798 81.6817C168.426 74.9538 166.241 67.675 166.241 59.8403V43.6869C166.241 42.444 166.596 41.3291 167.307 40.3347L167.307 40.3344M190.473 95.9798L167.307 40.3344M167.307 40.3344C168.018 39.3369 168.936 38.6161 170.067 38.1681M167.307 40.3344L170.067 38.1681M170.067 38.1681L190.477 30.6267C190.477 30.6266 190.477 30.6265 190.477 30.6264C191.192 30.3683 191.878 30.2412 192.536 30.2412C193.195 30.2412 193.882 30.3683 194.599 30.6264C194.6 30.6265 194.6 30.6266 194.6 30.6268L215.006 38.168C216.134 38.6185 217.053 39.3395 217.766 40.3347L170.067 38.1681ZM192.464 93.2598L192.536 93.2827L214.88 42.3103L215.079 42.1739C215.079 42.1737 215.079 42.1736 215.079 42.1734C214.783 41.742 214.366 41.4247 213.839 41.2182L213.839 41.2181L213.834 41.2165L193.428 33.6751C193.154 33.5623 192.856 33.5077 192.536 33.5077C192.217 33.5077 191.919 33.5623 191.645 33.675L171.239 41.2165L171.239 41.2165L171.234 41.2182C170.707 41.4247 170.29 41.742 169.994 42.1734C169.698 42.6019 169.55 43.0849 169.55 43.6152V59.8403C169.55 67.4949 171.713 74.4572 176.037 80.7207C180.361 86.9833 185.837 91.1677 192.464 93.2598Z" fill="url(#paint4_linear_10_743)" stroke="#EFF9FF" stroke-width="0.482482"/>
<path d="M201.299 54.801L198.266 51.7683C197.781 51.2831 197.134 51 196.446 51H189.087C187.631 51 186.499 52.1726 186.499 53.5879V59.5C186.499 59.5 187.389 59.0956 188.44 59.5L188.48 53.6284C188.48 53.2644 188.763 52.9814 189.127 52.9814H195.597V56.1758C195.597 56.9037 196.163 57.4698 196.891 57.4698H200.086V69.1154C200.086 69.4793 199.762 69.7624 199.439 69.7624H194.04L194 71.7033H199.439C200.854 71.7033 202.027 70.5711 202.027 69.1154V56.6206C202.067 55.9332 201.784 55.2862 201.299 54.801Z" fill="url(#paint5_linear_10_743)"/>
<path d="M191.701 66.2022V66.2736H191.772H192.25C192.503 66.2736 192.673 66.3223 192.788 66.4017C192.903 66.4801 192.972 66.5944 193.014 66.744C193.056 66.8953 193.069 67.0786 193.07 67.2889C193.07 67.3936 193.068 67.5035 193.066 67.6184L193.065 67.6249C193.063 67.7375 193.061 67.8546 193.061 67.9743V72.4045C193.061 72.5242 193.063 72.6413 193.065 72.7539L193.066 72.7604C193.068 72.8753 193.07 72.9852 193.07 73.0899C193.069 73.3002 193.056 73.4835 193.014 73.6348C192.972 73.7844 192.903 73.8987 192.788 73.9771C192.673 74.0565 192.503 74.1052 192.25 74.1052H182.695C182.434 74.1052 182.261 74.0563 182.144 73.9769C182.029 73.8986 181.96 73.7848 181.92 73.6355C181.88 73.4844 181.87 73.3012 181.871 73.0907C181.872 72.9958 181.875 72.8968 181.878 72.7935C181.878 72.7827 181.878 72.7718 181.878 72.7609C181.882 72.6462 181.885 72.5268 181.885 72.4045V67.9743C181.885 67.8486 181.882 67.7266 181.878 67.61C181.878 67.5982 181.878 67.5864 181.878 67.5747C181.875 67.4706 181.872 67.3712 181.871 67.2764C181.87 67.0645 181.88 66.8824 181.92 66.7331C181.96 66.5859 182.028 66.4747 182.143 66.3984C182.26 66.3209 182.434 66.2736 182.695 66.2736H183.173H183.244V66.2022V63.987C183.244 61.8437 185.119 60.0712 187.473 60.0712C189.797 60.0712 191.701 61.844 191.701 63.987V66.2022ZM189.861 66.2736H189.933V66.2022V63.987C189.933 62.7243 188.821 61.7004 187.473 61.7004C186.094 61.7004 185.013 62.7248 185.013 63.987V66.2022V66.2736H185.084H189.861Z" fill="url(#paint6_linear_10_743)" stroke="#EEF9FF" stroke-width="0.142889"/>
<path d="M22.516 124.084C22.516 124.78 22.276 125.36 21.796 125.824C21.324 126.28 20.6 126.508 19.624 126.508H18.016V130H16.924V121.636H19.624C20.568 121.636 21.284 121.864 21.772 122.32C22.268 122.776 22.516 123.364 22.516 124.084ZM19.624 125.608C20.232 125.608 20.68 125.476 20.968 125.212C21.256 124.948 21.4 124.572 21.4 124.084C21.4 123.052 20.808 122.536 19.624 122.536H18.016V125.608H19.624ZM24.9652 124.492C25.1572 124.116 25.4292 123.824 25.7812 123.616C26.1412 123.408 26.5772 123.304 27.0892 123.304V124.432H26.8012C25.5772 124.432 24.9652 125.096 24.9652 126.424V130H23.8732V123.424H24.9652V124.492ZM28.9138 122.356C28.7058 122.356 28.5298 122.284 28.3858 122.14C28.2418 121.996 28.1698 121.82 28.1698 121.612C28.1698 121.404 28.2418 121.228 28.3858 121.084C28.5298 120.94 28.7058 120.868 28.9138 120.868C29.1138 120.868 29.2818 120.94 29.4178 121.084C29.5618 121.228 29.6338 121.404 29.6338 121.612C29.6338 121.82 29.5618 121.996 29.4178 122.14C29.2818 122.284 29.1138 122.356 28.9138 122.356ZM29.4418 123.424V130H28.3498V123.424H29.4418ZM33.7509 128.992L35.7909 123.424H36.9549L34.3749 130H33.1029L30.5229 123.424H31.6989L33.7509 128.992ZM37.6215 126.688C37.6215 126.016 37.7575 125.428 38.0295 124.924C38.3015 124.412 38.6735 124.016 39.1455 123.736C39.6255 123.456 40.1575 123.316 40.7415 123.316C41.3175 123.316 41.8175 123.44 42.2415 123.688C42.6655 123.936 42.9815 124.248 43.1895 124.624V123.424H44.2935V130H43.1895V128.776C42.9735 129.16 42.6495 129.48 42.2175 129.736C41.7935 129.984 41.2975 130.108 40.7295 130.108C40.1455 130.108 39.6175 129.964 39.1455 129.676C38.6735 129.388 38.3015 128.984 38.0295 128.464C37.7575 127.944 37.6215 127.352 37.6215 126.688ZM43.1895 126.7C43.1895 126.204 43.0895 125.772 42.8895 125.404C42.6895 125.036 42.4175 124.756 42.0735 124.564C41.7375 124.364 41.3655 124.264 40.9575 124.264C40.5495 124.264 40.1775 124.36 39.8415 124.552C39.5055 124.744 39.2375 125.024 39.0375 125.392C38.8375 125.76 38.7375 126.192 38.7375 126.688C38.7375 127.192 38.8375 127.632 39.0375 128.008C39.2375 128.376 39.5055 128.66 39.8415 128.86C40.1775 129.052 40.5495 129.148 40.9575 129.148C41.3655 129.148 41.7375 129.052 42.0735 128.86C42.4175 128.66 42.6895 128.376 42.8895 128.008C43.0895 127.632 43.1895 127.196 43.1895 126.7ZM45.7308 126.7C45.7308 126.02 45.8668 125.428 46.1388 124.924C46.4108 124.412 46.7868 124.016 47.2668 123.736C47.7548 123.456 48.3108 123.316 48.9348 123.316C49.7428 123.316 50.4068 123.512 50.9268 123.904C51.4548 124.296 51.8028 124.84 51.9708 125.536H50.7948C50.6828 125.136 50.4628 124.82 50.1348 124.588C49.8148 124.356 49.4148 124.24 48.9348 124.24C48.3108 124.24 47.8068 124.456 47.4228 124.888C47.0388 125.312 46.8468 125.916 46.8468 126.7C46.8468 127.492 47.0388 128.104 47.4228 128.536C47.8068 128.968 48.3108 129.184 48.9348 129.184C49.4148 129.184 49.8148 129.072 50.1348 128.848C50.4548 128.624 50.6748 128.304 50.7948 127.888H51.9708C51.7948 128.56 51.4428 129.1 50.9148 129.508C50.3868 129.908 49.7268 130.108 48.9348 130.108C48.3108 130.108 47.7548 129.968 47.2668 129.688C46.7868 129.408 46.4108 129.012 46.1388 128.5C45.8668 127.988 45.7308 127.388 45.7308 126.7ZM59.0919 123.424L55.1319 133.096H54.0039L55.2999 129.928L52.6479 123.424H53.8599L55.9239 128.752L57.9639 123.424H59.0919ZM64.4808 124.492C64.6728 124.116 64.9448 123.824 65.2968 123.616C65.6568 123.408 66.0928 123.304 66.6048 123.304V124.432H66.3168C65.0928 124.432 64.4808 125.096 64.4808 126.424V130H63.3888V123.424H64.4808V124.492ZM73.8654 126.46C73.8654 126.668 73.8534 126.888 73.8294 127.12H68.5734C68.6134 127.768 68.8334 128.276 69.2334 128.644C69.6414 129.004 70.1334 129.184 70.7094 129.184C71.1814 129.184 71.5734 129.076 71.8854 128.86C72.2054 128.636 72.4294 128.34 72.5574 127.972H73.7334C73.5574 128.604 73.2054 129.12 72.6774 129.52C72.1494 129.912 71.4934 130.108 70.7094 130.108C70.0854 130.108 69.5254 129.968 69.0294 129.688C68.5414 129.408 68.1574 129.012 67.8774 128.5C67.5974 127.98 67.4574 127.38 67.4574 126.7C67.4574 126.02 67.5934 125.424 67.8654 124.912C68.1374 124.4 68.5174 124.008 69.0054 123.736C69.5014 123.456 70.0694 123.316 70.7094 123.316C71.3334 123.316 71.8854 123.452 72.3654 123.724C72.8454 123.996 73.2134 124.372 73.4694 124.852C73.7334 125.324 73.8654 125.86 73.8654 126.46ZM72.7374 126.232C72.7374 125.816 72.6454 125.46 72.4614 125.164C72.2774 124.86 72.0254 124.632 71.7054 124.48C71.3934 124.32 71.0454 124.24 70.6614 124.24C70.1094 124.24 69.6374 124.416 69.2454 124.768C68.8614 125.12 68.6414 125.608 68.5854 126.232H72.7374ZM83.2148 123.304C83.7268 123.304 84.1828 123.412 84.5828 123.628C84.9828 123.836 85.2988 124.152 85.5308 124.576C85.7628 125 85.8788 125.516 85.8788 126.124V130H84.7988V126.28C84.7988 125.624 84.6348 125.124 84.3068 124.78C83.9868 124.428 83.5508 124.252 82.9988 124.252C82.4308 124.252 81.9788 124.436 81.6428 124.804C81.3068 125.164 81.1388 125.688 81.1388 126.376V130H80.0588V126.28C80.0588 125.624 79.8948 125.124 79.5668 124.78C79.2468 124.428 78.8108 124.252 78.2588 124.252C77.6908 124.252 77.2388 124.436 76.9028 124.804C76.5668 125.164 76.3988 125.688 76.3988 126.376V130H75.3068V123.424H76.3988V124.372C76.6148 124.028 76.9028 123.764 77.2628 123.58C77.6308 123.396 78.0348 123.304 78.4748 123.304C79.0268 123.304 79.5148 123.428 79.9388 123.676C80.3628 123.924 80.6788 124.288 80.8868 124.768C81.0708 124.304 81.3748 123.944 81.7988 123.688C82.2228 123.432 82.6948 123.304 83.2148 123.304ZM87.2621 126.688C87.2621 126.016 87.3981 125.428 87.6701 124.924C87.9421 124.412 88.3141 124.016 88.7861 123.736C89.2661 123.456 89.7981 123.316 90.3821 123.316C90.9581 123.316 91.4581 123.44 91.8821 123.688C92.3061 123.936 92.6221 124.248 92.8301 124.624V123.424H93.9341V130H92.8301V128.776C92.6141 129.16 92.2901 129.48 91.8581 129.736C91.4341 129.984 90.9381 130.108 90.3701 130.108C89.7861 130.108 89.2581 129.964 88.7861 129.676C88.3141 129.388 87.9421 128.984 87.6701 128.464C87.3981 127.944 87.2621 127.352 87.2621 126.688ZM92.8301 126.7C92.8301 126.204 92.7301 125.772 92.5301 125.404C92.3301 125.036 92.0581 124.756 91.7141 124.564C91.3781 124.364 91.0061 124.264 90.5981 124.264C90.1901 124.264 89.8181 124.36 89.4821 124.552C89.1461 124.744 88.8781 125.024 88.6781 125.392C88.4781 125.76 88.3781 126.192 88.3781 126.688C88.3781 127.192 88.4781 127.632 88.6781 128.008C88.8781 128.376 89.1461 128.66 89.4821 128.86C89.8181 129.052 90.1901 129.148 90.5981 129.148C91.0061 129.148 91.3781 129.052 91.7141 128.86C92.0581 128.66 92.3301 128.376 92.5301 128.008C92.7301 127.632 92.8301 127.196 92.8301 126.7ZM96.3435 122.356C96.1355 122.356 95.9595 122.284 95.8155 122.14C95.6715 121.996 95.5995 121.82 95.5995 121.612C95.5995 121.404 95.6715 121.228 95.8155 121.084C95.9595 120.94 96.1355 120.868 96.3435 120.868C96.5435 120.868 96.7115 120.94 96.8475 121.084C96.9915 121.228 97.0635 121.404 97.0635 121.612C97.0635 121.82 96.9915 121.996 96.8475 122.14C96.7115 122.284 96.5435 122.356 96.3435 122.356ZM96.8715 123.424V130H95.7795V123.424H96.8715ZM101.937 123.304C102.737 123.304 103.385 123.548 103.881 124.036C104.377 124.516 104.625 125.212 104.625 126.124V130H103.545V126.28C103.545 125.624 103.381 125.124 103.053 124.78C102.725 124.428 102.277 124.252 101.709 124.252C101.133 124.252 100.673 124.432 100.329 124.792C99.9926 125.152 99.8246 125.676 99.8246 126.364V130H98.7326V123.424H99.8246V124.36C100.041 124.024 100.333 123.764 100.701 123.58C101.077 123.396 101.489 123.304 101.937 123.304ZM108.736 130.108C108.232 130.108 107.78 130.024 107.38 129.856C106.98 129.68 106.664 129.44 106.432 129.136C106.2 128.824 106.072 128.468 106.048 128.068H107.176C107.208 128.396 107.36 128.664 107.632 128.872C107.912 129.08 108.276 129.184 108.724 129.184C109.14 129.184 109.468 129.092 109.708 128.908C109.948 128.724 110.068 128.492 110.068 128.212C110.068 127.924 109.94 127.712 109.684 127.576C109.428 127.432 109.032 127.292 108.496 127.156C108.008 127.028 107.608 126.9 107.296 126.772C106.992 126.636 106.728 126.44 106.504 126.184C106.288 125.92 106.18 125.576 106.18 125.152C106.18 124.816 106.28 124.508 106.48 124.228C106.68 123.948 106.964 123.728 107.332 123.568C107.7 123.4 108.12 123.316 108.592 123.316C109.32 123.316 109.908 123.5 110.356 123.868C110.804 124.236 111.044 124.74 111.076 125.38H109.984C109.96 125.036 109.82 124.76 109.564 124.552C109.316 124.344 108.98 124.24 108.556 124.24C108.164 124.24 107.852 124.324 107.62 124.492C107.388 124.66 107.272 124.88 107.272 125.152C107.272 125.368 107.34 125.548 107.476 125.692C107.62 125.828 107.796 125.94 108.004 126.028C108.22 126.108 108.516 126.2 108.892 126.304C109.364 126.432 109.748 126.56 110.044 126.688C110.34 126.808 110.592 126.992 110.8 127.24C111.016 127.488 111.128 127.812 111.136 128.212C111.136 128.572 111.036 128.896 110.836 129.184C110.636 129.472 110.352 129.7 109.984 129.868C109.624 130.028 109.208 130.108 108.736 130.108ZM17.488 136.356C17.28 136.356 17.104 136.284 16.96 136.14C16.816 135.996 16.744 135.82 16.744 135.612C16.744 135.404 16.816 135.228 16.96 135.084C17.104 134.94 17.28 134.868 17.488 134.868C17.688 134.868 17.856 134.94 17.992 135.084C18.136 135.228 18.208 135.404 18.208 135.612C18.208 135.82 18.136 135.996 17.992 136.14C17.856 136.284 17.688 136.356 17.488 136.356ZM18.016 137.424V144H16.924V137.424H18.016ZM23.0811 137.304C23.8811 137.304 24.5291 137.548 25.0251 138.036C25.5211 138.516 25.7691 139.212 25.7691 140.124V144H24.6891V140.28C24.6891 139.624 24.5251 139.124 24.1971 138.78C23.8691 138.428 23.4211 138.252 22.8531 138.252C22.2771 138.252 21.8171 138.432 21.4731 138.792C21.1371 139.152 20.9691 139.676 20.9691 140.364V144H19.8771V137.424H20.9691V138.36C21.1851 138.024 21.4771 137.764 21.8451 137.58C22.2211 137.396 22.6331 137.304 23.0811 137.304ZM28.8849 138.324V142.2C28.8849 142.52 28.9529 142.748 29.0889 142.884C29.2249 143.012 29.4609 143.076 29.7969 143.076H30.6009V144H29.6169C29.0089 144 28.5529 143.86 28.2489 143.58C27.9449 143.3 27.7929 142.84 27.7929 142.2V138.324H26.9409V137.424H27.7929V135.768H28.8849V137.424H30.6009V138.324H28.8849ZM31.516 140.688C31.516 140.016 31.652 139.428 31.924 138.924C32.196 138.412 32.568 138.016 33.04 137.736C33.52 137.456 34.052 137.316 34.636 137.316C35.212 137.316 35.712 137.44 36.136 137.688C36.56 137.936 36.876 138.248 37.084 138.624V137.424H38.188V144H37.084V142.776C36.868 143.16 36.544 143.48 36.112 143.736C35.688 143.984 35.192 144.108 34.624 144.108C34.04 144.108 33.512 143.964 33.04 143.676C32.568 143.388 32.196 142.984 31.924 142.464C31.652 141.944 31.516 141.352 31.516 140.688ZM37.084 140.7C37.084 140.204 36.984 139.772 36.784 139.404C36.584 139.036 36.312 138.756 35.968 138.564C35.632 138.364 35.26 138.264 34.852 138.264C34.444 138.264 34.072 138.36 33.736 138.552C33.4 138.744 33.132 139.024 32.932 139.392C32.732 139.76 32.632 140.192 32.632 140.688C32.632 141.192 32.732 141.632 32.932 142.008C33.132 142.376 33.4 142.66 33.736 142.86C34.072 143.052 34.444 143.148 34.852 143.148C35.26 143.148 35.632 143.052 35.968 142.86C36.312 142.66 36.584 142.376 36.784 142.008C36.984 141.632 37.084 141.196 37.084 140.7ZM39.6254 140.7C39.6254 140.02 39.7614 139.428 40.0334 138.924C40.3054 138.412 40.6814 138.016 41.1614 137.736C41.6494 137.456 42.2054 137.316 42.8294 137.316C43.6374 137.316 44.3014 137.512 44.8214 137.904C45.3494 138.296 45.6974 138.84 45.8654 139.536H44.6894C44.5774 139.136 44.3574 138.82 44.0294 138.588C43.7094 138.356 43.3094 138.24 42.8294 138.24C42.2054 138.24 41.7014 138.456 41.3174 138.888C40.9334 139.312 40.7414 139.916 40.7414 140.7C40.7414 141.492 40.9334 142.104 41.3174 142.536C41.7014 142.968 42.2054 143.184 42.8294 143.184C43.3094 143.184 43.7094 143.072 44.0294 142.848C44.3494 142.624 44.5694 142.304 44.6894 141.888H45.8654C45.6894 142.56 45.3374 143.1 44.8094 143.508C44.2814 143.908 43.6214 144.108 42.8294 144.108C42.2054 144.108 41.6494 143.968 41.1614 143.688C40.6814 143.408 40.3054 143.012 40.0334 142.5C39.7614 141.988 39.6254 141.388 39.6254 140.7ZM48.6544 138.324V142.2C48.6544 142.52 48.7224 142.748 48.8584 142.884C48.9944 143.012 49.2304 143.076 49.5664 143.076H50.3704V144H49.3864C48.7784 144 48.3224 143.86 48.0184 143.58C47.7144 143.3 47.5624 142.84 47.5624 142.2V138.324H46.7104V137.424H47.5624V135.768H48.6544V137.424H50.3704V138.324H48.6544ZM59.4528 139.14V140.064H54.6648V139.14H59.4528ZM65.6253 143.052H69.7053V144H64.3293V143.136L68.3853 136.584H64.3773V135.636H69.6813V136.5L65.6253 143.052ZM77.1935 140.46C77.1935 140.668 77.1815 140.888 77.1575 141.12H71.9015C71.9415 141.768 72.1615 142.276 72.5615 142.644C72.9695 143.004 73.4615 143.184 74.0375 143.184C74.5095 143.184 74.9015 143.076 75.2135 142.86C75.5335 142.636 75.7575 142.34 75.8855 141.972H77.0615C76.8855 142.604 76.5335 143.12 76.0055 143.52C75.4775 143.912 74.8215 144.108 74.0375 144.108C73.4135 144.108 72.8535 143.968 72.3575 143.688C71.8695 143.408 71.4855 143.012 71.2055 142.5C70.9255 141.98 70.7855 141.38 70.7855 140.7C70.7855 140.02 70.9215 139.424 71.1935 138.912C71.4655 138.4 71.8455 138.008 72.3335 137.736C72.8295 137.456 73.3975 137.316 74.0375 137.316C74.6615 137.316 75.2135 137.452 75.6935 137.724C76.1735 137.996 76.5415 138.372 76.7975 138.852C77.0615 139.324 77.1935 139.86 77.1935 140.46ZM76.0655 140.232C76.0655 139.816 75.9735 139.46 75.7895 139.164C75.6055 138.86 75.3535 138.632 75.0335 138.48C74.7215 138.32 74.3735 138.24 73.9895 138.24C73.4375 138.24 72.9655 138.416 72.5735 138.768C72.1895 139.12 71.9695 139.608 71.9135 140.232H76.0655ZM79.7269 138.492C79.9189 138.116 80.1909 137.824 80.5429 137.616C80.9029 137.408 81.3389 137.304 81.8509 137.304V138.432H81.5629C80.3389 138.432 79.7269 139.096 79.7269 140.424V144H78.6349V137.424H79.7269V138.492ZM85.9795 144.108C85.3635 144.108 84.8035 143.968 84.2995 143.688C83.8035 143.408 83.4115 143.012 83.1235 142.5C82.8435 141.98 82.7035 141.38 82.7035 140.7C82.7035 140.028 82.8475 139.436 83.1355 138.924C83.4315 138.404 83.8315 138.008 84.3355 137.736C84.8395 137.456 85.4035 137.316 86.0275 137.316C86.6515 137.316 87.2155 137.456 87.7195 137.736C88.2235 138.008 88.6195 138.4 88.9075 138.912C89.2035 139.424 89.3515 140.02 89.3515 140.7C89.3515 141.38 89.1995 141.98 88.8955 142.5C88.5995 143.012 88.1955 143.408 87.6835 143.688C87.1715 143.968 86.6035 144.108 85.9795 144.108ZM85.9795 143.148C86.3715 143.148 86.7395 143.056 87.0835 142.872C87.4275 142.688 87.7035 142.412 87.9115 142.044C88.1275 141.676 88.2355 141.228 88.2355 140.7C88.2355 140.172 88.1315 139.724 87.9235 139.356C87.7155 138.988 87.4435 138.716 87.1075 138.54C86.7715 138.356 86.4075 138.264 86.0155 138.264C85.6155 138.264 85.2475 138.356 84.9115 138.54C84.5835 138.716 84.3195 138.988 84.1195 139.356C83.9195 139.724 83.8195 140.172 83.8195 140.7C83.8195 141.236 83.9155 141.688 84.1075 142.056C84.3075 142.424 84.5715 142.7 84.8995 142.884C85.2275 143.06 85.5875 143.148 85.9795 143.148ZM16.516 154.688C16.516 154.016 16.652 153.428 16.924 152.924C17.196 152.412 17.568 152.016 18.04 151.736C18.52 151.456 19.056 151.316 19.648 151.316C20.16 151.316 20.636 151.436 21.076 151.676C21.516 151.908 21.852 152.216 22.084 152.6V149.12H23.188V158H22.084V156.764C21.868 157.156 21.548 157.48 21.124 157.736C20.7 157.984 20.204 158.108 19.636 158.108C19.052 158.108 18.52 157.964 18.04 157.676C17.568 157.388 17.196 156.984 16.924 156.464C16.652 155.944 16.516 155.352 16.516 154.688ZM22.084 154.7C22.084 154.204 21.984 153.772 21.784 153.404C21.584 153.036 21.312 152.756 20.968 152.564C20.632 152.364 20.26 152.264 19.852 152.264C19.444 152.264 19.072 152.36 18.736 152.552C18.4 152.744 18.132 153.024 17.932 153.392C17.732 153.76 17.632 154.192 17.632 154.688C17.632 155.192 17.732 155.632 17.932 156.008C18.132 156.376 18.4 156.66 18.736 156.86C19.072 157.052 19.444 157.148 19.852 157.148C20.26 157.148 20.632 157.052 20.968 156.86C21.312 156.66 21.584 156.376 21.784 156.008C21.984 155.632 22.084 155.196 22.084 154.7ZM24.6254 154.688C24.6254 154.016 24.7614 153.428 25.0334 152.924C25.3054 152.412 25.6774 152.016 26.1494 151.736C26.6294 151.456 27.1614 151.316 27.7454 151.316C28.3214 151.316 28.8214 151.44 29.2454 151.688C29.6694 151.936 29.9854 152.248 30.1934 152.624V151.424H31.2974V158H30.1934V156.776C29.9774 157.16 29.6534 157.48 29.2214 157.736C28.7974 157.984 28.3014 158.108 27.7334 158.108C27.1494 158.108 26.6214 157.964 26.1494 157.676C25.6774 157.388 25.3054 156.984 25.0334 156.464C24.7614 155.944 24.6254 155.352 24.6254 154.688ZM30.1934 154.7C30.1934 154.204 30.0934 153.772 29.8934 153.404C29.6934 153.036 29.4214 152.756 29.0774 152.564C28.7414 152.364 28.3694 152.264 27.9614 152.264C27.5534 152.264 27.1814 152.36 26.8454 152.552C26.5094 152.744 26.2414 153.024 26.0414 153.392C25.8414 153.76 25.7414 154.192 25.7414 154.688C25.7414 155.192 25.8414 155.632 26.0414 156.008C26.2414 156.376 26.5094 156.66 26.8454 156.86C27.1814 157.052 27.5534 157.148 27.9614 157.148C28.3694 157.148 28.7414 157.052 29.0774 156.86C29.4214 156.66 29.6934 156.376 29.8934 156.008C30.0934 155.632 30.1934 155.196 30.1934 154.7ZM34.4748 152.324V156.2C34.4748 156.52 34.5428 156.748 34.6788 156.884C34.8148 157.012 35.0508 157.076 35.3867 157.076H36.1908V158H35.2068C34.5988 158 34.1428 157.86 33.8388 157.58C33.5348 157.3 33.3828 156.84 33.3828 156.2V152.324H32.5308V151.424H33.3828V149.768H34.4748V151.424H36.1908V152.324H34.4748ZM37.1058 154.688C37.1058 154.016 37.2418 153.428 37.5138 152.924C37.7858 152.412 38.1578 152.016 38.6298 151.736C39.1098 151.456 39.6418 151.316 40.2258 151.316C40.8018 151.316 41.3018 151.44 41.7258 151.688C42.1498 151.936 42.4658 152.248 42.6738 152.624V151.424H43.7778V158H42.6738V156.776C42.4578 157.16 42.1338 157.48 41.7018 157.736C41.2778 157.984 40.7818 158.108 40.2138 158.108C39.6298 158.108 39.1018 157.964 38.6298 157.676C38.1578 157.388 37.7858 156.984 37.5138 156.464C37.2418 155.944 37.1058 155.352 37.1058 154.688ZM42.6738 154.7C42.6738 154.204 42.5738 153.772 42.3738 153.404C42.1738 153.036 41.9018 152.756 41.5578 152.564C41.2218 152.364 40.8498 152.264 40.4418 152.264C40.0338 152.264 39.6618 152.36 39.3258 152.552C38.9898 152.744 38.7218 153.024 38.5218 153.392C38.3218 153.76 38.2218 154.192 38.2218 154.688C38.2218 155.192 38.3218 155.632 38.5218 156.008C38.7218 156.376 38.9898 156.66 39.3258 156.86C39.6618 157.052 40.0338 157.148 40.4418 157.148C40.8498 157.148 41.2218 157.052 41.5578 156.86C41.9018 156.66 42.1738 156.376 42.3738 156.008C42.5738 155.632 42.6738 155.196 42.6738 154.7ZM51.1504 158.108C50.6464 158.108 50.1944 158.024 49.7944 157.856C49.3944 157.68 49.0784 157.44 48.8464 157.136C48.6144 156.824 48.4864 156.468 48.4624 156.068H49.5904C49.6224 156.396 49.7744 156.664 50.0464 156.872C50.3264 157.08 50.6904 157.184 51.1384 157.184C51.5544 157.184 51.8824 157.092 52.1224 156.908C52.3624 156.724 52.4824 156.492 52.4824 156.212C52.4824 155.924 52.3544 155.712 52.0984 155.576C51.8424 155.432 51.4464 155.292 50.9104 155.156C50.4224 155.028 50.0224 154.9 49.7104 154.772C49.4064 154.636 49.1424 154.44 48.9184 154.184C48.7024 153.92 48.5944 153.576 48.5944 153.152C48.5944 152.816 48.6944 152.508 48.8944 152.228C49.0944 151.948 49.3784 151.728 49.7464 151.568C50.1144 151.4 50.5344 151.316 51.0064 151.316C51.7344 151.316 52.3224 151.5 52.7704 151.868C53.2184 152.236 53.4584 152.74 53.4904 153.38H52.3984C52.3744 153.036 52.2344 152.76 51.9784 152.552C51.7304 152.344 51.3944 152.24 50.9704 152.24C50.5784 152.24 50.2664 152.324 50.0344 152.492C49.8024 152.66 49.6864 152.88 49.6864 153.152C49.6864 153.368 49.7544 153.548 49.8904 153.692C50.0344 153.828 50.2104 153.94 50.4184 154.028C50.6344 154.108 50.9304 154.2 51.3064 154.304C51.7784 154.432 52.1624 154.56 52.4584 154.688C52.7544 154.808 53.0064 154.992 53.2144 155.24C53.4304 155.488 53.5424 155.812 53.5504 156.212C53.5504 156.572 53.4504 156.896 53.2504 157.184C53.0504 157.472 52.7664 157.7 52.3984 157.868C52.0384 158.028 51.6224 158.108 51.1504 158.108ZM56.424 152.324V156.2C56.424 156.52 56.492 156.748 56.628 156.884C56.764 157.012 57 157.076 57.336 157.076H58.14V158H57.156C56.548 158 56.092 157.86 55.788 157.58C55.484 157.3 55.332 156.84 55.332 156.2V152.324H54.48V151.424H55.332V149.768H56.424V151.424H58.14V152.324H56.424ZM62.3311 158.108C61.7151 158.108 61.1551 157.968 60.6511 157.688C60.1551 157.408 59.7631 157.012 59.4751 156.5C59.1951 155.98 59.0551 155.38 59.0551 154.7C59.0551 154.028 59.1991 153.436 59.4871 152.924C59.7831 152.404 60.1831 152.008 60.6871 151.736C61.1911 151.456 61.7551 151.316 62.3791 151.316C63.0031 151.316 63.5671 151.456 64.0711 151.736C64.5751 152.008 64.9711 152.4 65.2591 152.912C65.5551 153.424 65.7031 154.02 65.7031 154.7C65.7031 155.38 65.5511 155.98 65.2471 156.5C64.9511 157.012 64.5471 157.408 64.0351 157.688C63.5231 157.968 62.9551 158.108 62.3311 158.108ZM62.3311 157.148C62.7231 157.148 63.0911 157.056 63.4351 156.872C63.7791 156.688 64.0551 156.412 64.2631 156.044C64.4791 155.676 64.5871 155.228 64.5871 154.7C64.5871 154.172 64.4831 153.724 64.2751 153.356C64.0671 152.988 63.7951 152.716 63.4591 152.54C63.1231 152.356 62.7591 152.264 62.3671 152.264C61.9671 152.264 61.5991 152.356 61.2631 152.54C60.9351 152.716 60.6711 152.988 60.4711 153.356C60.2711 153.724 60.1711 154.172 60.1711 154.7C60.1711 155.236 60.2671 155.688 60.4591 156.056C60.6591 156.424 60.9231 156.7 61.2511 156.884C61.5791 157.06 61.9391 157.148 62.3311 157.148ZM68.2308 152.492C68.4228 152.116 68.6948 151.824 69.0468 151.616C69.4068 151.408 69.8428 151.304 70.3548 151.304V152.432H70.0668C68.8428 152.432 68.2308 153.096 68.2308 154.424V158H67.1388V151.424H68.2308V152.492ZM71.2074 154.688C71.2074 154.016 71.3434 153.428 71.6154 152.924C71.8874 152.412 72.2594 152.016 72.7314 151.736C73.2114 151.456 73.7434 151.316 74.3274 151.316C74.9034 151.316 75.4034 151.44 75.8274 151.688C76.2514 151.936 76.5674 152.248 76.7754 152.624V151.424H77.8794V158H76.7754V156.776C76.5594 157.16 76.2354 157.48 75.8034 157.736C75.3794 157.984 74.8834 158.108 74.3154 158.108C73.7314 158.108 73.2034 157.964 72.7314 157.676C72.2594 157.388 71.8874 156.984 71.6154 156.464C71.3434 155.944 71.2074 155.352 71.2074 154.688ZM76.7754 154.7C76.7754 154.204 76.6754 153.772 76.4754 153.404C76.2754 153.036 76.0034 152.756 75.6594 152.564C75.3234 152.364 74.9514 152.264 74.5434 152.264C74.1354 152.264 73.7634 152.36 73.4274 152.552C73.0914 152.744 72.8234 153.024 72.6234 153.392C72.4234 153.76 72.3234 154.192 72.3234 154.688C72.3234 155.192 72.4234 155.632 72.6234 156.008C72.8234 156.376 73.0914 156.66 73.4274 156.86C73.7634 157.052 74.1354 157.148 74.5434 157.148C74.9514 157.148 75.3234 157.052 75.6594 156.86C76.0034 156.66 76.2754 156.376 76.4754 156.008C76.6754 155.632 76.7754 155.196 76.7754 154.7ZM82.4368 151.316C83.0048 151.316 83.5008 151.44 83.9248 151.688C84.3568 151.936 84.6768 152.248 84.8848 152.624V151.424H85.9888V158.144C85.9888 158.744 85.8608 159.276 85.6048 159.74C85.3488 160.212 84.9808 160.58 84.5008 160.844C84.0288 161.108 83.4768 161.24 82.8448 161.24C81.9808 161.24 81.2608 161.036 80.6848 160.628C80.1088 160.22 79.7688 159.664 79.6648 158.96H80.7448C80.8648 159.36 81.1128 159.68 81.4888 159.92C81.8648 160.168 82.3168 160.292 82.8448 160.292C83.4448 160.292 83.9328 160.104 84.3088 159.728C84.6928 159.352 84.8848 158.824 84.8848 158.144V156.764C84.6688 157.148 84.3488 157.468 83.9248 157.724C83.5008 157.98 83.0048 158.108 82.4368 158.108C81.8528 158.108 81.3208 157.964 80.8408 157.676C80.3688 157.388 79.9968 156.984 79.7248 156.464C79.4528 155.944 79.3168 155.352 79.3168 154.688C79.3168 154.016 79.4528 153.428 79.7248 152.924C79.9968 152.412 80.3688 152.016 80.8408 151.736C81.3208 151.456 81.8528 151.316 82.4368 151.316ZM84.8848 154.7C84.8848 154.204 84.7848 153.772 84.5848 153.404C84.3848 153.036 84.1128 152.756 83.7688 152.564C83.4328 152.364 83.0608 152.264 82.6528 152.264C82.2448 152.264 81.8728 152.36 81.5368 152.552C81.2008 152.744 80.9328 153.024 80.7328 153.392C80.5328 153.76 80.4328 154.192 80.4328 154.688C80.4328 155.192 80.5328 155.632 80.7328 156.008C80.9328 156.376 81.2008 156.66 81.5368 156.86C81.8728 157.052 82.2448 157.148 82.6528 157.148C83.0608 157.148 83.4328 157.052 83.7688 156.86C84.1128 156.66 84.3848 156.376 84.5848 156.008C84.7848 155.632 84.8848 155.196 84.8848 154.7ZM93.8342 154.46C93.8342 154.668 93.8222 154.888 93.7982 155.12H88.5422C88.5822 155.768 88.8022 156.276 89.2022 156.644C89.6102 157.004 90.1022 157.184 90.6782 157.184C91.1502 157.184 91.5422 157.076 91.8542 156.86C92.1742 156.636 92.3982 156.34 92.5262 155.972H93.7022C93.5262 156.604 93.1742 157.12 92.6462 157.52C92.1182 157.912 91.4622 158.108 90.6782 158.108C90.0542 158.108 89.4942 157.968 88.9982 157.688C88.5102 157.408 88.1262 157.012 87.8462 156.5C87.5662 155.98 87.4262 155.38 87.4262 154.7C87.4262 154.02 87.5622 153.424 87.8342 152.912C88.1062 152.4 88.4862 152.008 88.9742 151.736C89.4702 151.456 90.0382 151.316 90.6782 151.316C91.3022 151.316 91.8542 151.452 92.3342 151.724C92.8142 151.996 93.1822 152.372 93.4382 152.852C93.7022 153.324 93.8342 153.86 93.8342 154.46ZM92.7062 154.232C92.7062 153.816 92.6142 153.46 92.4302 153.164C92.2462 152.86 91.9942 152.632 91.6742 152.48C91.3622 152.32 91.0142 152.24 90.6302 152.24C90.0782 152.24 89.6062 152.416 89.2142 152.768C88.8302 153.12 88.6102 153.608 88.5542 154.232H92.7062Z" fill="#444444"/>
<path d="M143.992 121.636V126.928C143.992 127.672 144.172 128.224 144.532 128.584C144.9 128.944 145.408 129.124 146.056 129.124C146.696 129.124 147.196 128.944 147.556 128.584C147.924 128.224 148.108 127.672 148.108 126.928V121.636H149.2V126.916C149.2 127.612 149.06 128.2 148.78 128.68C148.5 129.152 148.12 129.504 147.64 129.736C147.168 129.968 146.636 130.084 146.044 130.084C145.452 130.084 144.916 129.968 144.436 129.736C143.964 129.504 143.588 129.152 143.308 128.68C143.036 128.2 142.9 127.612 142.9 126.916V121.636H143.992ZM152.114 124.636C152.33 124.26 152.65 123.948 153.074 123.7C153.506 123.444 154.006 123.316 154.574 123.316C155.158 123.316 155.686 123.456 156.158 123.736C156.638 124.016 157.014 124.412 157.286 124.924C157.558 125.428 157.694 126.016 157.694 126.688C157.694 127.352 157.558 127.944 157.286 128.464C157.014 128.984 156.638 129.388 156.158 129.676C155.686 129.964 155.158 130.108 154.574 130.108C154.014 130.108 153.518 129.984 153.086 129.736C152.662 129.48 152.338 129.164 152.114 128.788V133.12H151.022V123.424H152.114V124.636ZM156.578 126.688C156.578 126.192 156.478 125.76 156.278 125.392C156.078 125.024 155.806 124.744 155.462 124.552C155.126 124.36 154.754 124.264 154.346 124.264C153.946 124.264 153.574 124.364 153.23 124.564C152.894 124.756 152.622 125.04 152.414 125.416C152.214 125.784 152.114 126.212 152.114 126.7C152.114 127.196 152.214 127.632 152.414 128.008C152.622 128.376 152.894 128.66 153.23 128.86C153.574 129.052 153.946 129.148 154.346 129.148C154.754 129.148 155.126 129.052 155.462 128.86C155.806 128.66 156.078 128.376 156.278 128.008C156.478 127.632 156.578 127.192 156.578 126.688ZM160.223 121.12V130H159.131V121.12H160.223ZM164.952 130.108C164.336 130.108 163.776 129.968 163.272 129.688C162.776 129.408 162.384 129.012 162.096 128.5C161.816 127.98 161.676 127.38 161.676 126.7C161.676 126.028 161.82 125.436 162.108 124.924C162.404 124.404 162.804 124.008 163.308 123.736C163.812 123.456 164.376 123.316 165 123.316C165.624 123.316 166.188 123.456 166.692 123.736C167.196 124.008 167.592 124.4 167.88 124.912C168.176 125.424 168.324 126.02 168.324 126.7C168.324 127.38 168.172 127.98 167.868 128.5C167.572 129.012 167.168 129.408 166.656 129.688C166.144 129.968 165.576 130.108 164.952 130.108ZM164.952 129.148C165.344 129.148 165.712 129.056 166.056 128.872C166.4 128.688 166.676 128.412 166.884 128.044C167.1 127.676 167.208 127.228 167.208 126.7C167.208 126.172 167.104 125.724 166.896 125.356C166.688 124.988 166.416 124.716 166.08 124.54C165.744 124.356 165.38 124.264 164.988 124.264C164.588 124.264 164.22 124.356 163.884 124.54C163.556 124.716 163.292 124.988 163.092 125.356C162.892 125.724 162.792 126.172 162.792 126.7C162.792 127.236 162.888 127.688 163.08 128.056C163.28 128.424 163.544 128.7 163.872 128.884C164.2 129.06 164.56 129.148 164.952 129.148ZM169.352 126.688C169.352 126.016 169.488 125.428 169.76 124.924C170.032 124.412 170.404 124.016 170.876 123.736C171.356 123.456 171.888 123.316 172.472 123.316C173.048 123.316 173.548 123.44 173.972 123.688C174.396 123.936 174.712 124.248 174.92 124.624V123.424H176.024V130H174.92V128.776C174.704 129.16 174.38 129.48 173.948 129.736C173.524 129.984 173.028 130.108 172.46 130.108C171.876 130.108 171.348 129.964 170.876 129.676C170.404 129.388 170.032 128.984 169.76 128.464C169.488 127.944 169.352 127.352 169.352 126.688ZM174.92 126.7C174.92 126.204 174.82 125.772 174.62 125.404C174.42 125.036 174.148 124.756 173.804 124.564C173.468 124.364 173.096 124.264 172.688 124.264C172.28 124.264 171.908 124.36 171.572 124.552C171.236 124.744 170.968 125.024 170.768 125.392C170.568 125.76 170.468 126.192 170.468 126.688C170.468 127.192 170.568 127.632 170.768 128.008C170.968 128.376 171.236 128.66 171.572 128.86C171.908 129.052 172.28 129.148 172.688 129.148C173.096 129.148 173.468 129.052 173.804 128.86C174.148 128.66 174.42 128.376 174.62 128.008C174.82 127.632 174.92 127.196 174.92 126.7ZM177.461 126.688C177.461 126.016 177.597 125.428 177.869 124.924C178.141 124.412 178.513 124.016 178.985 123.736C179.465 123.456 180.001 123.316 180.593 123.316C181.105 123.316 181.581 123.436 182.021 123.676C182.461 123.908 182.797 124.216 183.029 124.6V121.12H184.133V130H183.029V128.764C182.813 129.156 182.493 129.48 182.069 129.736C181.645 129.984 181.149 130.108 180.581 130.108C179.997 130.108 179.465 129.964 178.985 129.676C178.513 129.388 178.141 128.984 177.869 128.464C177.597 127.944 177.461 127.352 177.461 126.688ZM183.029 126.7C183.029 126.204 182.929 125.772 182.729 125.404C182.529 125.036 182.257 124.756 181.913 124.564C181.577 124.364 181.205 124.264 180.797 124.264C180.389 124.264 180.017 124.36 179.681 124.552C179.345 124.744 179.077 125.024 178.877 125.392C178.677 125.76 178.577 126.192 178.577 126.688C178.577 127.192 178.677 127.632 178.877 128.008C179.077 128.376 179.345 128.66 179.681 128.86C180.017 129.052 180.389 129.148 180.797 129.148C181.205 129.148 181.577 129.052 181.913 128.86C182.257 128.66 182.529 128.376 182.729 128.008C182.929 127.632 183.029 127.196 183.029 126.7ZM191.979 126.46C191.979 126.668 191.967 126.888 191.943 127.12H186.687C186.727 127.768 186.947 128.276 187.347 128.644C187.755 129.004 188.247 129.184 188.823 129.184C189.295 129.184 189.687 129.076 189.999 128.86C190.319 128.636 190.543 128.34 190.671 127.972H191.847C191.671 128.604 191.319 129.12 190.791 129.52C190.263 129.912 189.607 130.108 188.823 130.108C188.199 130.108 187.639 129.968 187.143 129.688C186.655 129.408 186.271 129.012 185.991 128.5C185.711 127.98 185.571 127.38 185.571 126.7C185.571 126.02 185.707 125.424 185.979 124.912C186.251 124.4 186.631 124.008 187.119 123.736C187.615 123.456 188.183 123.316 188.823 123.316C189.447 123.316 189.999 123.452 190.479 123.724C190.959 123.996 191.327 124.372 191.583 124.852C191.847 125.324 191.979 125.86 191.979 126.46ZM190.851 126.232C190.851 125.816 190.759 125.46 190.575 125.164C190.391 124.86 190.139 124.632 189.819 124.48C189.507 124.32 189.159 124.24 188.775 124.24C188.223 124.24 187.751 124.416 187.359 124.768C186.975 125.12 186.755 125.608 186.699 126.232H190.851ZM193.012 126.688C193.012 126.016 193.148 125.428 193.42 124.924C193.692 124.412 194.064 124.016 194.536 123.736C195.016 123.456 195.552 123.316 196.144 123.316C196.656 123.316 197.132 123.436 197.572 123.676C198.012 123.908 198.348 124.216 198.58 124.6V121.12H199.684V130H198.58V128.764C198.364 129.156 198.044 129.48 197.62 129.736C197.196 129.984 196.7 130.108 196.132 130.108C195.548 130.108 195.016 129.964 194.536 129.676C194.064 129.388 193.692 128.984 193.42 128.464C193.148 127.944 193.012 127.352 193.012 126.688ZM198.58 126.7C198.58 126.204 198.48 125.772 198.28 125.404C198.08 125.036 197.808 124.756 197.464 124.564C197.128 124.364 196.756 124.264 196.348 124.264C195.94 124.264 195.568 124.36 195.232 124.552C194.896 124.744 194.628 125.024 194.428 125.392C194.228 125.76 194.128 126.192 194.128 126.688C194.128 127.192 194.228 127.632 194.428 128.008C194.628 128.376 194.896 128.66 195.232 128.86C195.568 129.052 195.94 129.148 196.348 129.148C196.756 129.148 197.128 129.052 197.464 128.86C197.808 128.66 198.08 128.376 198.28 128.008C198.48 127.632 198.58 127.196 198.58 126.7ZM144.016 138.492C144.208 138.116 144.48 137.824 144.832 137.616C145.192 137.408 145.628 137.304 146.14 137.304V138.432H145.852C144.628 138.432 144.016 139.096 144.016 140.424V144H142.924V137.424H144.016V138.492ZM153.401 140.46C153.401 140.668 153.389 140.888 153.365 141.12H148.109C148.149 141.768 148.369 142.276 148.769 142.644C149.177 143.004 149.669 143.184 150.245 143.184C150.717 143.184 151.109 143.076 151.421 142.86C151.741 142.636 151.965 142.34 152.093 141.972H153.269C153.093 142.604 152.741 143.12 152.213 143.52C151.685 143.912 151.029 144.108 150.245 144.108C149.621 144.108 149.061 143.968 148.565 143.688C148.077 143.408 147.693 143.012 147.413 142.5C147.133 141.98 146.993 141.38 146.993 140.7C146.993 140.02 147.129 139.424 147.401 138.912C147.673 138.4 148.053 138.008 148.541 137.736C149.037 137.456 149.605 137.316 150.245 137.316C150.869 137.316 151.421 137.452 151.901 137.724C152.381 137.996 152.749 138.372 153.005 138.852C153.269 139.324 153.401 139.86 153.401 140.46ZM152.273 140.232C152.273 139.816 152.181 139.46 151.997 139.164C151.813 138.86 151.561 138.632 151.241 138.48C150.929 138.32 150.581 138.24 150.197 138.24C149.645 138.24 149.173 138.416 148.781 138.768C148.397 139.12 148.177 139.608 148.121 140.232H152.273ZM155.934 138.636C156.15 138.26 156.47 137.948 156.894 137.7C157.326 137.444 157.826 137.316 158.394 137.316C158.978 137.316 159.506 137.456 159.978 137.736C160.458 138.016 160.834 138.412 161.106 138.924C161.378 139.428 161.514 140.016 161.514 140.688C161.514 141.352 161.378 141.944 161.106 142.464C160.834 142.984 160.458 143.388 159.978 143.676C159.506 143.964 158.978 144.108 158.394 144.108C157.834 144.108 157.338 143.984 156.906 143.736C156.482 143.48 156.158 143.164 155.934 142.788V147.12H154.842V137.424H155.934V138.636ZM160.398 140.688C160.398 140.192 160.298 139.76 160.098 139.392C159.898 139.024 159.626 138.744 159.282 138.552C158.946 138.36 158.574 138.264 158.166 138.264C157.766 138.264 157.394 138.364 157.05 138.564C156.714 138.756 156.442 139.04 156.234 139.416C156.034 139.784 155.934 140.212 155.934 140.7C155.934 141.196 156.034 141.632 156.234 142.008C156.442 142.376 156.714 142.66 157.05 142.86C157.394 143.052 157.766 143.148 158.166 143.148C158.574 143.148 158.946 143.052 159.282 142.86C159.626 142.66 159.898 142.376 160.098 142.008C160.298 141.632 160.398 141.192 160.398 140.688ZM165.819 144.108C165.203 144.108 164.643 143.968 164.139 143.688C163.643 143.408 163.251 143.012 162.963 142.5C162.683 141.98 162.543 141.38 162.543 140.7C162.543 140.028 162.687 139.436 162.975 138.924C163.271 138.404 163.671 138.008 164.175 137.736C164.679 137.456 165.243 137.316 165.867 137.316C166.491 137.316 167.055 137.456 167.559 137.736C168.063 138.008 168.459 138.4 168.747 138.912C169.043 139.424 169.191 140.02 169.191 140.7C169.191 141.38 169.039 141.98 168.735 142.5C168.439 143.012 168.035 143.408 167.523 143.688C167.011 143.968 166.443 144.108 165.819 144.108ZM165.819 143.148C166.211 143.148 166.579 143.056 166.923 142.872C167.267 142.688 167.543 142.412 167.751 142.044C167.967 141.676 168.075 141.228 168.075 140.7C168.075 140.172 167.971 139.724 167.763 139.356C167.555 138.988 167.283 138.716 166.947 138.54C166.611 138.356 166.247 138.264 165.855 138.264C165.455 138.264 165.087 138.356 164.751 138.54C164.423 138.716 164.159 138.988 163.959 139.356C163.759 139.724 163.659 140.172 163.659 140.7C163.659 141.236 163.755 141.688 163.947 142.056C164.147 142.424 164.411 142.7 164.739 142.884C165.067 143.06 165.427 143.148 165.819 143.148ZM171.719 138.492C171.911 138.116 172.183 137.824 172.535 137.616C172.895 137.408 173.331 137.304 173.843 137.304V138.432H173.555C172.331 138.432 171.719 139.096 171.719 140.424V144H170.627V137.424H171.719V138.492ZM176.436 138.324V142.2C176.436 142.52 176.504 142.748 176.64 142.884C176.776 143.012 177.012 143.076 177.348 143.076H178.152V144H177.168C176.56 144 176.104 143.86 175.8 143.58C175.496 143.3 175.344 142.84 175.344 142.2V138.324H174.492V137.424H175.344V135.768H176.436V137.424H178.152V138.324H176.436ZM181.803 144.108C181.299 144.108 180.847 144.024 180.447 143.856C180.047 143.68 179.731 143.44 179.499 143.136C179.267 142.824 179.139 142.468 179.115 142.068H180.243C180.275 142.396 180.427 142.664 180.699 142.872C180.979 143.08 181.343 143.184 181.791 143.184C182.207 143.184 182.535 143.092 182.775 142.908C183.015 142.724 183.135 142.492 183.135 142.212C183.135 141.924 183.007 141.712 182.751 141.576C182.495 141.432 182.099 141.292 181.563 141.156C181.075 141.028 180.675 140.9 180.363 140.772C180.059 140.636 179.795 140.44 179.571 140.184C179.355 139.92 179.247 139.576 179.247 139.152C179.247 138.816 179.347 138.508 179.547 138.228C179.747 137.948 180.031 137.728 180.399 137.568C180.767 137.4 181.187 137.316 181.659 137.316C182.387 137.316 182.975 137.5 183.423 137.868C183.871 138.236 184.111 138.74 184.143 139.38H183.051C183.027 139.036 182.887 138.76 182.631 138.552C182.383 138.344 182.047 138.24 181.623 138.24C181.231 138.24 180.919 138.324 180.687 138.492C180.455 138.66 180.339 138.88 180.339 139.152C180.339 139.368 180.407 139.548 180.543 139.692C180.687 139.828 180.863 139.94 181.071 140.028C181.287 140.108 181.583 140.2 181.959 140.304C182.431 140.432 182.815 140.56 183.111 140.688C183.407 140.808 183.659 140.992 183.867 141.24C184.083 141.488 184.195 141.812 184.203 142.212C184.203 142.572 184.103 142.896 183.903 143.184C183.703 143.472 183.419 143.7 183.051 143.868C182.691 144.028 182.275 144.108 181.803 144.108ZM190.036 138.636C190.252 138.26 190.572 137.948 190.996 137.7C191.428 137.444 191.928 137.316 192.496 137.316C193.08 137.316 193.608 137.456 194.08 137.736C194.56 138.016 194.936 138.412 195.208 138.924C195.48 139.428 195.616 140.016 195.616 140.688C195.616 141.352 195.48 141.944 195.208 142.464C194.936 142.984 194.56 143.388 194.08 143.676C193.608 143.964 193.08 144.108 192.496 144.108C191.936 144.108 191.44 143.984 191.008 143.736C190.584 143.48 190.26 143.164 190.036 142.788V147.12H188.944V137.424H190.036V138.636ZM194.5 140.688C194.5 140.192 194.4 139.76 194.2 139.392C194 139.024 193.728 138.744 193.384 138.552C193.048 138.36 192.676 138.264 192.268 138.264C191.868 138.264 191.496 138.364 191.152 138.564C190.816 138.756 190.544 139.04 190.336 139.416C190.136 139.784 190.036 140.212 190.036 140.7C190.036 141.196 190.136 141.632 190.336 142.008C190.544 142.376 190.816 142.66 191.152 142.86C191.496 143.052 191.868 143.148 192.268 143.148C192.676 143.148 193.048 143.052 193.384 142.86C193.728 142.66 194 142.376 194.2 142.008C194.4 141.632 194.5 141.192 194.5 140.688ZM203.053 140.46C203.053 140.668 203.041 140.888 203.017 141.12H197.761C197.801 141.768 198.021 142.276 198.421 142.644C198.829 143.004 199.321 143.184 199.897 143.184C200.369 143.184 200.761 143.076 201.073 142.86C201.393 142.636 201.617 142.34 201.745 141.972H202.921C202.745 142.604 202.393 143.12 201.865 143.52C201.337 143.912 200.681 144.108 199.897 144.108C199.273 144.108 198.713 143.968 198.217 143.688C197.729 143.408 197.345 143.012 197.065 142.5C196.785 141.98 196.645 141.38 196.645 140.7C196.645 140.02 196.781 139.424 197.053 138.912C197.325 138.4 197.705 138.008 198.193 137.736C198.689 137.456 199.257 137.316 199.897 137.316C200.521 137.316 201.073 137.452 201.553 137.724C202.033 137.996 202.401 138.372 202.657 138.852C202.921 139.324 203.053 139.86 203.053 140.46ZM201.925 140.232C201.925 139.816 201.833 139.46 201.649 139.164C201.465 138.86 201.213 138.632 200.893 138.48C200.581 138.32 200.233 138.24 199.849 138.24C199.297 138.24 198.825 138.416 198.433 138.768C198.049 139.12 197.829 139.608 197.773 140.232H201.925ZM205.586 138.492C205.778 138.116 206.05 137.824 206.402 137.616C206.762 137.408 207.198 137.304 207.71 137.304V138.432H207.422C206.198 138.432 205.586 139.096 205.586 140.424V144H204.494V137.424H205.586V138.492ZM211.299 144.108C210.795 144.108 210.343 144.024 209.943 143.856C209.543 143.68 209.227 143.44 208.995 143.136C208.763 142.824 208.635 142.468 208.611 142.068H209.739C209.771 142.396 209.923 142.664 210.195 142.872C210.475 143.08 210.839 143.184 211.287 143.184C211.703 143.184 212.031 143.092 212.271 142.908C212.511 142.724 212.631 142.492 212.631 142.212C212.631 141.924 212.503 141.712 212.247 141.576C211.991 141.432 211.595 141.292 211.059 141.156C210.571 141.028 210.171 140.9 209.859 140.772C209.555 140.636 209.291 140.44 209.067 140.184C208.851 139.92 208.743 139.576 208.743 139.152C208.743 138.816 208.843 138.508 209.043 138.228C209.243 137.948 209.527 137.728 209.895 137.568C210.263 137.4 210.683 137.316 211.155 137.316C211.883 137.316 212.471 137.5 212.919 137.868C213.367 138.236 213.607 138.74 213.639 139.38H212.547C212.523 139.036 212.383 138.76 212.127 138.552C211.879 138.344 211.543 138.24 211.119 138.24C210.727 138.24 210.415 138.324 210.183 138.492C209.951 138.66 209.835 138.88 209.835 139.152C209.835 139.368 209.903 139.548 210.039 139.692C210.183 139.828 210.359 139.94 210.567 140.028C210.783 140.108 211.079 140.2 211.455 140.304C211.927 140.432 212.311 140.56 212.607 140.688C212.903 140.808 213.155 140.992 213.363 141.24C213.579 141.488 213.691 141.812 213.699 142.212C213.699 142.572 213.599 142.896 213.399 143.184C213.199 143.472 212.915 143.7 212.547 143.868C212.187 144.028 211.771 144.108 211.299 144.108ZM215.804 136.356C215.596 136.356 215.42 136.284 215.276 136.14C215.132 135.996 215.06 135.82 215.06 135.612C215.06 135.404 215.132 135.228 215.276 135.084C215.42 134.94 215.596 134.868 215.804 134.868C216.004 134.868 216.172 134.94 216.308 135.084C216.452 135.228 216.524 135.404 216.524 135.612C216.524 135.82 216.452 135.996 216.308 136.14C216.172 136.284 216.004 136.356 215.804 136.356ZM216.332 137.424V144H215.24V137.424H216.332ZM220.522 144.108C220.018 144.108 219.566 144.024 219.166 143.856C218.766 143.68 218.45 143.44 218.218 143.136C217.986 142.824 217.858 142.468 217.834 142.068H218.962C218.994 142.396 219.146 142.664 219.418 142.872C219.698 143.08 220.062 143.184 220.51 143.184C220.926 143.184 221.254 143.092 221.494 142.908C221.734 142.724 221.854 142.492 221.854 142.212C221.854 141.924 221.726 141.712 221.47 141.576C221.214 141.432 220.818 141.292 220.282 141.156C219.794 141.028 219.394 140.9 219.082 140.772C218.778 140.636 218.514 140.44 218.29 140.184C218.074 139.92 217.966 139.576 217.966 139.152C217.966 138.816 218.066 138.508 218.266 138.228C218.466 137.948 218.75 137.728 219.118 137.568C219.486 137.4 219.906 137.316 220.378 137.316C221.106 137.316 221.694 137.5 222.142 137.868C222.59 138.236 222.83 138.74 222.862 139.38H221.77C221.746 139.036 221.606 138.76 221.35 138.552C221.102 138.344 220.766 138.24 220.342 138.24C219.95 138.24 219.638 138.324 219.406 138.492C219.174 138.66 219.058 138.88 219.058 139.152C219.058 139.368 219.126 139.548 219.262 139.692C219.406 139.828 219.582 139.94 219.79 140.028C220.006 140.108 220.302 140.2 220.678 140.304C221.15 140.432 221.534 140.56 221.83 140.688C222.126 140.808 222.378 140.992 222.586 141.24C222.802 141.488 222.914 141.812 222.922 142.212C222.922 142.572 222.822 142.896 222.622 143.184C222.422 143.472 222.138 143.7 221.77 143.868C221.41 144.028 220.994 144.108 220.522 144.108ZM225.795 138.324V142.2C225.795 142.52 225.863 142.748 225.999 142.884C226.135 143.012 226.371 143.076 226.707 143.076H227.511V144H226.527C225.919 144 225.463 143.86 225.159 143.58C224.855 143.3 224.703 142.84 224.703 142.2V138.324H223.851V137.424H224.703V135.768H225.795V137.424H227.511V138.324H225.795ZM145.6 152.324H144.22V158H143.128V152.324H142.276V151.424H143.128V150.956C143.128 150.22 143.316 149.684 143.692 149.348C144.076 149.004 144.688 148.832 145.528 148.832V149.744C145.048 149.744 144.708 149.84 144.508 150.032C144.316 150.216 144.22 150.524 144.22 150.956V151.424H145.6V152.324ZM149.741 158.108C149.125 158.108 148.565 157.968 148.061 157.688C147.565 157.408 147.173 157.012 146.885 156.5C146.605 155.98 146.465 155.38 146.465 154.7C146.465 154.028 146.609 153.436 146.897 152.924C147.193 152.404 147.593 152.008 148.097 151.736C148.601 151.456 149.165 151.316 149.789 151.316C150.413 151.316 150.977 151.456 151.481 151.736C151.985 152.008 152.381 152.4 152.669 152.912C152.965 153.424 153.113 154.02 153.113 154.7C153.113 155.38 152.961 155.98 152.657 156.5C152.361 157.012 151.957 157.408 151.445 157.688C150.933 157.968 150.365 158.108 149.741 158.108ZM149.741 157.148C150.133 157.148 150.501 157.056 150.845 156.872C151.189 156.688 151.465 156.412 151.673 156.044C151.889 155.676 151.997 155.228 151.997 154.7C151.997 154.172 151.893 153.724 151.685 153.356C151.477 152.988 151.205 152.716 150.869 152.54C150.533 152.356 150.169 152.264 149.777 152.264C149.377 152.264 149.009 152.356 148.673 152.54C148.345 152.716 148.081 152.988 147.881 153.356C147.681 153.724 147.581 154.172 147.581 154.7C147.581 155.236 147.677 155.688 147.869 156.056C148.069 156.424 148.333 156.7 148.661 156.884C148.989 157.06 149.349 157.148 149.741 157.148ZM155.641 152.492C155.833 152.116 156.105 151.824 156.457 151.616C156.817 151.408 157.253 151.304 157.765 151.304V152.432H157.477C156.253 152.432 155.641 153.096 155.641 154.424V158H154.549V151.424H155.641V152.492ZM165.093 158.108C164.477 158.108 163.917 157.968 163.413 157.688C162.917 157.408 162.525 157.012 162.237 156.5C161.957 155.98 161.817 155.38 161.817 154.7C161.817 154.028 161.961 153.436 162.249 152.924C162.545 152.404 162.945 152.008 163.449 151.736C163.953 151.456 164.517 151.316 165.141 151.316C165.765 151.316 166.329 151.456 166.833 151.736C167.337 152.008 167.733 152.4 168.021 152.912C168.317 153.424 168.465 154.02 168.465 154.7C168.465 155.38 168.313 155.98 168.009 156.5C167.713 157.012 167.309 157.408 166.797 157.688C166.285 157.968 165.717 158.108 165.093 158.108ZM165.093 157.148C165.485 157.148 165.853 157.056 166.197 156.872C166.541 156.688 166.817 156.412 167.025 156.044C167.241 155.676 167.349 155.228 167.349 154.7C167.349 154.172 167.245 153.724 167.037 153.356C166.829 152.988 166.557 152.716 166.221 152.54C165.885 152.356 165.521 152.264 165.129 152.264C164.729 152.264 164.361 152.356 164.025 152.54C163.697 152.716 163.433 152.988 163.233 153.356C163.033 153.724 162.933 154.172 162.933 154.7C162.933 155.236 163.029 155.688 163.221 156.056C163.421 156.424 163.685 156.7 164.013 156.884C164.341 157.06 164.701 157.148 165.093 157.148ZM173.105 151.304C173.905 151.304 174.553 151.548 175.049 152.036C175.545 152.516 175.793 153.212 175.793 154.124V158H174.713V154.28C174.713 153.624 174.549 153.124 174.221 152.78C173.893 152.428 173.445 152.252 172.877 152.252C172.301 152.252 171.841 152.432 171.497 152.792C171.161 153.152 170.993 153.676 170.993 154.364V158H169.901V151.424H170.993V152.36C171.209 152.024 171.501 151.764 171.869 151.58C172.245 151.396 172.657 151.304 173.105 151.304ZM183.576 154.46C183.576 154.668 183.564 154.888 183.54 155.12H178.284C178.324 155.768 178.544 156.276 178.944 156.644C179.352 157.004 179.844 157.184 180.42 157.184C180.892 157.184 181.284 157.076 181.596 156.86C181.916 156.636 182.14 156.34 182.268 155.972H183.444C183.268 156.604 182.916 157.12 182.388 157.52C181.86 157.912 181.204 158.108 180.42 158.108C179.796 158.108 179.236 157.968 178.74 157.688C178.252 157.408 177.868 157.012 177.588 156.5C177.308 155.98 177.168 155.38 177.168 154.7C177.168 154.02 177.304 153.424 177.576 152.912C177.848 152.4 178.228 152.008 178.716 151.736C179.212 151.456 179.78 151.316 180.42 151.316C181.044 151.316 181.596 151.452 182.076 151.724C182.556 151.996 182.924 152.372 183.18 152.852C183.444 153.324 183.576 153.86 183.576 154.46ZM182.448 154.232C182.448 153.816 182.356 153.46 182.172 153.164C181.988 152.86 181.736 152.632 181.416 152.48C181.104 152.32 180.756 152.24 180.372 152.24C179.82 152.24 179.348 152.416 178.956 152.768C178.572 153.12 178.352 153.608 178.296 154.232H182.448ZM187.809 154.7C187.809 154.02 187.945 153.428 188.217 152.924C188.489 152.412 188.865 152.016 189.345 151.736C189.833 151.456 190.389 151.316 191.013 151.316C191.821 151.316 192.485 151.512 193.005 151.904C193.533 152.296 193.881 152.84 194.049 153.536H192.873C192.761 153.136 192.541 152.82 192.213 152.588C191.893 152.356 191.493 152.24 191.013 152.24C190.389 152.24 189.885 152.456 189.501 152.888C189.117 153.312 188.925 153.916 188.925 154.7C188.925 155.492 189.117 156.104 189.501 156.536C189.885 156.968 190.389 157.184 191.013 157.184C191.493 157.184 191.893 157.072 192.213 156.848C192.533 156.624 192.753 156.304 192.873 155.888H194.049C193.873 156.56 193.521 157.1 192.993 157.508C192.465 157.908 191.805 158.108 191.013 158.108C190.389 158.108 189.833 157.968 189.345 157.688C188.865 157.408 188.489 157.012 188.217 156.5C187.945 155.988 187.809 155.388 187.809 154.7ZM198.77 151.304C199.266 151.304 199.714 151.412 200.114 151.628C200.514 151.836 200.826 152.152 201.05 152.576C201.282 153 201.398 153.516 201.398 154.124V158H200.318V154.28C200.318 153.624 200.154 153.124 199.826 152.78C199.498 152.428 199.05 152.252 198.482 152.252C197.906 152.252 197.446 152.432 197.102 152.792C196.766 153.152 196.598 153.676 196.598 154.364V158H195.506V149.12H196.598V152.36C196.814 152.024 197.11 151.764 197.486 151.58C197.87 151.396 198.298 151.304 198.77 151.304ZM202.774 154.688C202.774 154.016 202.91 153.428 203.182 152.924C203.454 152.412 203.826 152.016 204.298 151.736C204.778 151.456 205.31 151.316 205.894 151.316C206.47 151.316 206.97 151.44 207.394 151.688C207.818 151.936 208.134 152.248 208.342 152.624V151.424H209.446V158H208.342V156.776C208.126 157.16 207.802 157.48 207.37 157.736C206.946 157.984 206.45 158.108 205.882 158.108C205.298 158.108 204.77 157.964 204.298 157.676C203.826 157.388 203.454 156.984 203.182 156.464C202.91 155.944 202.774 155.352 202.774 154.688ZM208.342 154.7C208.342 154.204 208.242 153.772 208.042 153.404C207.842 153.036 207.57 152.756 207.226 152.564C206.89 152.364 206.518 152.264 206.11 152.264C205.702 152.264 205.33 152.36 204.994 152.552C204.658 152.744 204.39 153.024 204.19 153.392C203.99 153.76 203.89 154.192 203.89 154.688C203.89 155.192 203.99 155.632 204.19 156.008C204.39 156.376 204.658 156.66 204.994 156.86C205.33 157.052 205.702 157.148 206.11 157.148C206.518 157.148 206.89 157.052 207.226 156.86C207.57 156.66 207.842 156.376 208.042 156.008C208.242 155.632 208.342 155.196 208.342 154.7ZM212.623 152.324V156.2C212.623 156.52 212.691 156.748 212.827 156.884C212.963 157.012 213.199 157.076 213.535 157.076H214.339V158H213.355C212.747 158 212.291 157.86 211.987 157.58C211.683 157.3 211.531 156.84 211.531 156.2V152.324H210.679V151.424H211.531V149.768H212.623V151.424H214.339V152.324H212.623ZM221.73 158.108C221.114 158.108 220.554 157.968 220.05 157.688C219.554 157.408 219.162 157.012 218.874 156.5C218.594 155.98 218.454 155.38 218.454 154.7C218.454 154.028 218.598 153.436 218.886 152.924C219.182 152.404 219.582 152.008 220.086 151.736C220.59 151.456 221.154 151.316 221.778 151.316C222.402 151.316 222.966 151.456 223.47 151.736C223.974 152.008 224.37 152.4 224.658 152.912C224.954 153.424 225.102 154.02 225.102 154.7C225.102 155.38 224.95 155.98 224.646 156.5C224.35 157.012 223.946 157.408 223.434 157.688C222.922 157.968 222.354 158.108 221.73 158.108ZM221.73 157.148C222.122 157.148 222.49 157.056 222.834 156.872C223.178 156.688 223.454 156.412 223.662 156.044C223.878 155.676 223.986 155.228 223.986 154.7C223.986 154.172 223.882 153.724 223.674 153.356C223.466 152.988 223.194 152.716 222.858 152.54C222.522 152.356 222.158 152.264 221.766 152.264C221.366 152.264 220.998 152.356 220.662 152.54C220.334 152.716 220.07 152.988 219.87 153.356C219.67 153.724 219.57 154.172 219.57 154.7C219.57 155.236 219.666 155.688 219.858 156.056C220.058 156.424 220.322 156.7 220.65 156.884C220.978 157.06 221.338 157.148 221.73 157.148ZM229.741 151.304C230.541 151.304 231.189 151.548 231.685 152.036C232.181 152.516 232.429 153.212 232.429 154.124V158H231.349V154.28C231.349 153.624 231.185 153.124 230.857 152.78C230.529 152.428 230.081 152.252 229.513 152.252C228.937 152.252 228.477 152.432 228.133 152.792C227.797 153.152 227.629 153.676 227.629 154.364V158H226.537V151.424H227.629V152.36C227.845 152.024 228.137 151.764 228.505 151.58C228.881 151.396 229.293 151.304 229.741 151.304ZM235.305 149.12V158H234.213V149.12H235.305ZM242.83 151.424L238.87 161.096H237.742L239.038 157.928L236.386 151.424H237.598L239.662 156.752L241.702 151.424H242.83Z" fill="#444444"/>
<path d="M270.016 129.112H272.944V130H268.924V121.636H270.016V129.112ZM276.972 130.108C276.356 130.108 275.796 129.968 275.292 129.688C274.796 129.408 274.404 129.012 274.116 128.5C273.836 127.98 273.696 127.38 273.696 126.7C273.696 126.028 273.84 125.436 274.128 124.924C274.424 124.404 274.824 124.008 275.328 123.736C275.832 123.456 276.396 123.316 277.02 123.316C277.644 123.316 278.208 123.456 278.712 123.736C279.216 124.008 279.612 124.4 279.9 124.912C280.196 125.424 280.344 126.02 280.344 126.7C280.344 127.38 280.192 127.98 279.888 128.5C279.592 129.012 279.188 129.408 278.676 129.688C278.164 129.968 277.596 130.108 276.972 130.108ZM276.972 129.148C277.364 129.148 277.732 129.056 278.076 128.872C278.42 128.688 278.696 128.412 278.904 128.044C279.12 127.676 279.228 127.228 279.228 126.7C279.228 126.172 279.124 125.724 278.916 125.356C278.708 124.988 278.436 124.716 278.1 124.54C277.764 124.356 277.4 124.264 277.008 124.264C276.608 124.264 276.24 124.356 275.904 124.54C275.576 124.716 275.312 124.988 275.112 125.356C274.912 125.724 274.812 126.172 274.812 126.7C274.812 127.236 274.908 127.688 275.1 128.056C275.3 128.424 275.564 128.7 275.892 128.884C276.22 129.06 276.58 129.148 276.972 129.148ZM284.491 123.316C285.059 123.316 285.555 123.44 285.979 123.688C286.411 123.936 286.731 124.248 286.939 124.624V123.424H288.043V130.144C288.043 130.744 287.915 131.276 287.659 131.74C287.403 132.212 287.035 132.58 286.555 132.844C286.083 133.108 285.531 133.24 284.899 133.24C284.035 133.24 283.315 133.036 282.739 132.628C282.163 132.22 281.823 131.664 281.719 130.96H282.799C282.919 131.36 283.167 131.68 283.543 131.92C283.919 132.168 284.371 132.292 284.899 132.292C285.499 132.292 285.987 132.104 286.363 131.728C286.747 131.352 286.939 130.824 286.939 130.144V128.764C286.723 129.148 286.403 129.468 285.979 129.724C285.555 129.98 285.059 130.108 284.491 130.108C283.907 130.108 283.375 129.964 282.895 129.676C282.423 129.388 282.051 128.984 281.779 128.464C281.507 127.944 281.371 127.352 281.371 126.688C281.371 126.016 281.507 125.428 281.779 124.924C282.051 124.412 282.423 124.016 282.895 123.736C283.375 123.456 283.907 123.316 284.491 123.316ZM286.939 126.7C286.939 126.204 286.839 125.772 286.639 125.404C286.439 125.036 286.167 124.756 285.823 124.564C285.487 124.364 285.115 124.264 284.707 124.264C284.299 124.264 283.927 124.36 283.591 124.552C283.255 124.744 282.987 125.024 282.787 125.392C282.587 125.76 282.487 126.192 282.487 126.688C282.487 127.192 282.587 127.632 282.787 128.008C282.987 128.376 283.255 128.66 283.591 128.86C283.927 129.052 284.299 129.148 284.707 129.148C285.115 129.148 285.487 129.052 285.823 128.86C286.167 128.66 286.439 128.376 286.639 128.008C286.839 127.632 286.939 127.196 286.939 126.7ZM294.449 125.14V126.064H289.661V125.14H294.449ZM297.062 122.356C296.854 122.356 296.678 122.284 296.534 122.14C296.39 121.996 296.318 121.82 296.318 121.612C296.318 121.404 296.39 121.228 296.534 121.084C296.678 120.94 296.854 120.868 297.062 120.868C297.262 120.868 297.43 120.94 297.566 121.084C297.71 121.228 297.782 121.404 297.782 121.612C297.782 121.82 297.71 121.996 297.566 122.14C297.43 122.284 297.262 122.356 297.062 122.356ZM297.59 123.424V130H296.498V123.424H297.59ZM302.655 123.304C303.455 123.304 304.103 123.548 304.599 124.036C305.095 124.516 305.343 125.212 305.343 126.124V130H304.263V126.28C304.263 125.624 304.099 125.124 303.771 124.78C303.443 124.428 302.995 124.252 302.427 124.252C301.851 124.252 301.391 124.432 301.047 124.792C300.711 125.152 300.543 125.676 300.543 126.364V130H299.451V123.424H300.543V124.36C300.759 124.024 301.051 123.764 301.419 123.58C301.795 123.396 302.207 123.304 302.655 123.304ZM268.516 140.7C268.516 140.02 268.652 139.428 268.924 138.924C269.196 138.412 269.572 138.016 270.052 137.736C270.54 137.456 271.096 137.316 271.72 137.316C272.528 137.316 273.192 137.512 273.712 137.904C274.24 138.296 274.588 138.84 274.756 139.536H273.58C273.468 139.136 273.248 138.82 272.92 138.588C272.6 138.356 272.2 138.24 271.72 138.24C271.096 138.24 270.592 138.456 270.208 138.888C269.824 139.312 269.632 139.916 269.632 140.7C269.632 141.492 269.824 142.104 270.208 142.536C270.592 142.968 271.096 143.184 271.72 143.184C272.2 143.184 272.6 143.072 272.92 142.848C273.24 142.624 273.46 142.304 273.58 141.888H274.756C274.58 142.56 274.228 143.1 273.7 143.508C273.172 143.908 272.512 144.108 271.72 144.108C271.096 144.108 270.54 143.968 270.052 143.688C269.572 143.408 269.196 143.012 268.924 142.5C268.652 141.988 268.516 141.388 268.516 140.7ZM277.305 138.492C277.497 138.116 277.769 137.824 278.121 137.616C278.481 137.408 278.917 137.304 279.429 137.304V138.432H279.141C277.917 138.432 277.305 139.096 277.305 140.424V144H276.213V137.424H277.305V138.492ZM286.69 140.46C286.69 140.668 286.678 140.888 286.654 141.12H281.398C281.438 141.768 281.658 142.276 282.058 142.644C282.466 143.004 282.958 143.184 283.534 143.184C284.006 143.184 284.398 143.076 284.71 142.86C285.03 142.636 285.254 142.34 285.382 141.972H286.558C286.382 142.604 286.03 143.12 285.502 143.52C284.974 143.912 284.318 144.108 283.534 144.108C282.91 144.108 282.35 143.968 281.854 143.688C281.366 143.408 280.982 143.012 280.702 142.5C280.422 141.98 280.282 141.38 280.282 140.7C280.282 140.02 280.418 139.424 280.69 138.912C280.962 138.4 281.342 138.008 281.83 137.736C282.326 137.456 282.894 137.316 283.534 137.316C284.158 137.316 284.71 137.452 285.19 137.724C285.67 137.996 286.038 138.372 286.294 138.852C286.558 139.324 286.69 139.86 286.69 140.46ZM285.562 140.232C285.562 139.816 285.47 139.46 285.286 139.164C285.102 138.86 284.85 138.632 284.53 138.48C284.218 138.32 283.87 138.24 283.486 138.24C282.934 138.24 282.462 138.416 282.07 138.768C281.686 139.12 281.466 139.608 281.41 140.232H285.562ZM287.723 140.688C287.723 140.016 287.859 139.428 288.131 138.924C288.403 138.412 288.775 138.016 289.247 137.736C289.727 137.456 290.263 137.316 290.855 137.316C291.367 137.316 291.843 137.436 292.283 137.676C292.723 137.908 293.059 138.216 293.291 138.6V135.12H294.395V144H293.291V142.764C293.075 143.156 292.755 143.48 292.331 143.736C291.907 143.984 291.411 144.108 290.843 144.108C290.259 144.108 289.727 143.964 289.247 143.676C288.775 143.388 288.403 142.984 288.131 142.464C287.859 141.944 287.723 141.352 287.723 140.688ZM293.291 140.7C293.291 140.204 293.191 139.772 292.991 139.404C292.791 139.036 292.519 138.756 292.175 138.564C291.839 138.364 291.467 138.264 291.059 138.264C290.651 138.264 290.279 138.36 289.943 138.552C289.607 138.744 289.339 139.024 289.139 139.392C288.939 139.76 288.839 140.192 288.839 140.688C288.839 141.192 288.939 141.632 289.139 142.008C289.339 142.376 289.607 142.66 289.943 142.86C290.279 143.052 290.651 143.148 291.059 143.148C291.467 143.148 291.839 143.052 292.175 142.86C292.519 142.66 292.791 142.376 292.991 142.008C293.191 141.632 293.291 141.196 293.291 140.7ZM302.24 140.46C302.24 140.668 302.228 140.888 302.204 141.12H296.948C296.988 141.768 297.208 142.276 297.608 142.644C298.016 143.004 298.508 143.184 299.084 143.184C299.556 143.184 299.948 143.076 300.26 142.86C300.58 142.636 300.804 142.34 300.932 141.972H302.108C301.932 142.604 301.58 143.12 301.052 143.52C300.524 143.912 299.868 144.108 299.084 144.108C298.46 144.108 297.9 143.968 297.404 143.688C296.916 143.408 296.532 143.012 296.252 142.5C295.972 141.98 295.832 141.38 295.832 140.7C295.832 140.02 295.968 139.424 296.24 138.912C296.512 138.4 296.892 138.008 297.38 137.736C297.876 137.456 298.444 137.316 299.084 137.316C299.708 137.316 300.26 137.452 300.74 137.724C301.22 137.996 301.588 138.372 301.844 138.852C302.108 139.324 302.24 139.86 302.24 140.46ZM301.112 140.232C301.112 139.816 301.02 139.46 300.836 139.164C300.652 138.86 300.4 138.632 300.08 138.48C299.768 138.32 299.42 138.24 299.036 138.24C298.484 138.24 298.012 138.416 297.62 138.768C297.236 139.12 297.016 139.608 296.96 140.232H301.112ZM306.886 137.304C307.686 137.304 308.334 137.548 308.83 138.036C309.326 138.516 309.574 139.212 309.574 140.124V144H308.494V140.28C308.494 139.624 308.33 139.124 308.002 138.78C307.674 138.428 307.226 138.252 306.658 138.252C306.082 138.252 305.622 138.432 305.278 138.792C304.942 139.152 304.774 139.676 304.774 140.364V144H303.682V137.424H304.774V138.36C304.99 138.024 305.282 137.764 305.65 137.58C306.026 137.396 306.438 137.304 306.886 137.304ZM312.69 138.324V142.2C312.69 142.52 312.758 142.748 312.894 142.884C313.03 143.012 313.266 143.076 313.602 143.076H314.406V144H313.422C312.814 144 312.358 143.86 312.054 143.58C311.75 143.3 311.598 142.84 311.598 142.2V138.324H310.746V137.424H311.598V135.768H312.69V137.424H314.406V138.324H312.69ZM316.293 136.356C316.085 136.356 315.909 136.284 315.765 136.14C315.621 135.996 315.549 135.82 315.549 135.612C315.549 135.404 315.621 135.228 315.765 135.084C315.909 134.94 316.085 134.868 316.293 134.868C316.493 134.868 316.661 134.94 316.797 135.084C316.941 135.228 317.013 135.404 317.013 135.612C317.013 135.82 316.941 135.996 316.797 136.14C316.661 136.284 316.493 136.356 316.293 136.356ZM316.821 137.424V144H315.729V137.424H316.821ZM318.274 140.688C318.274 140.016 318.41 139.428 318.682 138.924C318.954 138.412 319.326 138.016 319.798 137.736C320.278 137.456 320.81 137.316 321.394 137.316C321.97 137.316 322.47 137.44 322.894 137.688C323.318 137.936 323.634 138.248 323.842 138.624V137.424H324.946V144H323.842V142.776C323.626 143.16 323.302 143.48 322.87 143.736C322.446 143.984 321.95 144.108 321.382 144.108C320.798 144.108 320.27 143.964 319.798 143.676C319.326 143.388 318.954 142.984 318.682 142.464C318.41 141.944 318.274 141.352 318.274 140.688ZM323.842 140.7C323.842 140.204 323.742 139.772 323.542 139.404C323.342 139.036 323.07 138.756 322.726 138.564C322.39 138.364 322.018 138.264 321.61 138.264C321.202 138.264 320.83 138.36 320.494 138.552C320.158 138.744 319.89 139.024 319.69 139.392C319.49 139.76 319.39 140.192 319.39 140.688C319.39 141.192 319.49 141.632 319.69 142.008C319.89 142.376 320.158 142.66 320.494 142.86C320.83 143.052 321.202 143.148 321.61 143.148C322.018 143.148 322.39 143.052 322.726 142.86C323.07 142.66 323.342 142.376 323.542 142.008C323.742 141.632 323.842 141.196 323.842 140.7ZM327.883 135.12V144H326.791V135.12H327.883ZM332.072 144.108C331.568 144.108 331.116 144.024 330.716 143.856C330.316 143.68 330 143.44 329.768 143.136C329.536 142.824 329.408 142.468 329.384 142.068H330.512C330.544 142.396 330.696 142.664 330.968 142.872C331.248 143.08 331.612 143.184 332.06 143.184C332.476 143.184 332.804 143.092 333.044 142.908C333.284 142.724 333.404 142.492 333.404 142.212C333.404 141.924 333.276 141.712 333.02 141.576C332.764 141.432 332.368 141.292 331.832 141.156C331.344 141.028 330.944 140.9 330.632 140.772C330.328 140.636 330.064 140.44 329.84 140.184C329.624 139.92 329.516 139.576 329.516 139.152C329.516 138.816 329.616 138.508 329.816 138.228C330.016 137.948 330.3 137.728 330.668 137.568C331.036 137.4 331.456 137.316 331.928 137.316C332.656 137.316 333.244 137.5 333.692 137.868C334.14 138.236 334.38 138.74 334.412 139.38H333.32C333.296 139.036 333.156 138.76 332.9 138.552C332.652 138.344 332.316 138.24 331.892 138.24C331.5 138.24 331.188 138.324 330.956 138.492C330.724 138.66 330.608 138.88 330.608 139.152C330.608 139.368 330.676 139.548 330.812 139.692C330.956 139.828 331.132 139.94 331.34 140.028C331.556 140.108 331.852 140.2 332.228 140.304C332.7 140.432 333.084 140.56 333.38 140.688C333.676 140.808 333.928 140.992 334.136 141.24C334.352 141.488 334.464 141.812 334.472 142.212C334.472 142.572 334.372 142.896 334.172 143.184C333.972 143.472 333.688 143.7 333.32 143.868C332.96 144.028 332.544 144.108 332.072 144.108ZM271.252 158.108C270.748 158.108 270.296 158.024 269.896 157.856C269.496 157.68 269.18 157.44 268.948 157.136C268.716 156.824 268.588 156.468 268.564 156.068H269.692C269.724 156.396 269.876 156.664 270.148 156.872C270.428 157.08 270.792 157.184 271.24 157.184C271.656 157.184 271.984 157.092 272.224 156.908C272.464 156.724 272.584 156.492 272.584 156.212C272.584 155.924 272.456 155.712 272.2 155.576C271.944 155.432 271.548 155.292 271.012 155.156C270.524 155.028 270.124 154.9 269.812 154.772C269.508 154.636 269.244 154.44 269.02 154.184C268.804 153.92 268.696 153.576 268.696 153.152C268.696 152.816 268.796 152.508 268.996 152.228C269.196 151.948 269.48 151.728 269.848 151.568C270.216 151.4 270.636 151.316 271.108 151.316C271.836 151.316 272.424 151.5 272.872 151.868C273.32 152.236 273.56 152.74 273.592 153.38H272.5C272.476 153.036 272.336 152.76 272.08 152.552C271.832 152.344 271.496 152.24 271.072 152.24C270.68 152.24 270.368 152.324 270.136 152.492C269.904 152.66 269.788 152.88 269.788 153.152C269.788 153.368 269.856 153.548 269.992 153.692C270.136 153.828 270.312 153.94 270.52 154.028C270.736 154.108 271.032 154.2 271.408 154.304C271.88 154.432 272.264 154.56 272.56 154.688C272.856 154.808 273.108 154.992 273.316 155.24C273.532 155.488 273.644 155.812 273.652 156.212C273.652 156.572 273.552 156.896 273.352 157.184C273.152 157.472 272.868 157.7 272.5 157.868C272.14 158.028 271.724 158.108 271.252 158.108ZM276.526 152.324V156.2C276.526 156.52 276.594 156.748 276.73 156.884C276.866 157.012 277.102 157.076 277.438 157.076H278.242V158H277.258C276.65 158 276.194 157.86 275.89 157.58C275.586 157.3 275.434 156.84 275.434 156.2V152.324H274.582V151.424H275.434V149.768H276.526V151.424H278.242V152.324H276.526ZM279.157 154.688C279.157 154.016 279.293 153.428 279.565 152.924C279.837 152.412 280.209 152.016 280.681 151.736C281.161 151.456 281.693 151.316 282.277 151.316C282.853 151.316 283.353 151.44 283.777 151.688C284.201 151.936 284.517 152.248 284.725 152.624V151.424H285.829V158H284.725V156.776C284.509 157.16 284.185 157.48 283.753 157.736C283.329 157.984 282.833 158.108 282.265 158.108C281.681 158.108 281.153 157.964 280.681 157.676C280.209 157.388 279.837 156.984 279.565 156.464C279.293 155.944 279.157 155.352 279.157 154.688ZM284.725 154.7C284.725 154.204 284.625 153.772 284.425 153.404C284.225 153.036 283.953 152.756 283.609 152.564C283.273 152.364 282.901 152.264 282.493 152.264C282.085 152.264 281.713 152.36 281.377 152.552C281.041 152.744 280.773 153.024 280.573 153.392C280.373 153.76 280.273 154.192 280.273 154.688C280.273 155.192 280.373 155.632 280.573 156.008C280.773 156.376 281.041 156.66 281.377 156.86C281.713 157.052 282.085 157.148 282.493 157.148C282.901 157.148 283.273 157.052 283.609 156.86C283.953 156.66 284.225 156.376 284.425 156.008C284.625 155.632 284.725 155.196 284.725 154.7ZM293.338 151.424L289.378 161.096H288.25L289.546 157.928L286.894 151.424H288.106L290.17 156.752L292.21 151.424H293.338ZM299.963 158.108C299.459 158.108 299.007 158.024 298.607 157.856C298.207 157.68 297.891 157.44 297.659 157.136C297.427 156.824 297.299 156.468 297.275 156.068H298.403C298.435 156.396 298.587 156.664 298.859 156.872C299.139 157.08 299.503 157.184 299.951 157.184C300.367 157.184 300.695 157.092 300.935 156.908C301.175 156.724 301.295 156.492 301.295 156.212C301.295 155.924 301.167 155.712 300.911 155.576C300.655 155.432 300.259 155.292 299.723 155.156C299.235 155.028 298.835 154.9 298.523 154.772C298.219 154.636 297.955 154.44 297.731 154.184C297.515 153.92 297.407 153.576 297.407 153.152C297.407 152.816 297.507 152.508 297.707 152.228C297.907 151.948 298.191 151.728 298.559 151.568C298.927 151.4 299.347 151.316 299.819 151.316C300.547 151.316 301.135 151.5 301.583 151.868C302.031 152.236 302.271 152.74 302.303 153.38H301.211C301.187 153.036 301.047 152.76 300.791 152.552C300.543 152.344 300.207 152.24 299.783 152.24C299.391 152.24 299.079 152.324 298.847 152.492C298.615 152.66 298.499 152.88 298.499 153.152C298.499 153.368 298.567 153.548 298.703 153.692C298.847 153.828 299.023 153.94 299.231 154.028C299.447 154.108 299.743 154.2 300.119 154.304C300.591 154.432 300.975 154.56 301.271 154.688C301.567 154.808 301.819 154.992 302.027 155.24C302.243 155.488 302.355 155.812 302.363 156.212C302.363 156.572 302.263 156.896 302.063 157.184C301.863 157.472 301.579 157.7 301.211 157.868C300.851 158.028 300.435 158.108 299.963 158.108ZM309.904 154.46C309.904 154.668 309.892 154.888 309.868 155.12H304.612C304.652 155.768 304.872 156.276 305.272 156.644C305.68 157.004 306.172 157.184 306.748 157.184C307.22 157.184 307.612 157.076 307.924 156.86C308.244 156.636 308.468 156.34 308.596 155.972H309.772C309.596 156.604 309.244 157.12 308.716 157.52C308.188 157.912 307.532 158.108 306.748 158.108C306.124 158.108 305.564 157.968 305.068 157.688C304.58 157.408 304.196 157.012 303.916 156.5C303.636 155.98 303.496 155.38 303.496 154.7C303.496 154.02 303.632 153.424 303.904 152.912C304.176 152.4 304.556 152.008 305.044 151.736C305.54 151.456 306.108 151.316 306.748 151.316C307.372 151.316 307.924 151.452 308.404 151.724C308.884 151.996 309.252 152.372 309.508 152.852C309.772 153.324 309.904 153.86 309.904 154.46ZM308.776 154.232C308.776 153.816 308.684 153.46 308.5 153.164C308.316 152.86 308.064 152.632 307.744 152.48C307.432 152.32 307.084 152.24 306.7 152.24C306.148 152.24 305.676 152.416 305.284 152.768C304.9 153.12 304.68 153.608 304.624 154.232H308.776ZM310.938 154.7C310.938 154.02 311.074 153.428 311.346 152.924C311.618 152.412 311.994 152.016 312.474 151.736C312.962 151.456 313.518 151.316 314.142 151.316C314.95 151.316 315.614 151.512 316.134 151.904C316.662 152.296 317.01 152.84 317.178 153.536H316.002C315.89 153.136 315.67 152.82 315.342 152.588C315.022 152.356 314.622 152.24 314.142 152.24C313.518 152.24 313.014 152.456 312.63 152.888C312.246 153.312 312.054 153.916 312.054 154.7C312.054 155.492 312.246 156.104 312.63 156.536C313.014 156.968 313.518 157.184 314.142 157.184C314.622 157.184 315.022 157.072 315.342 156.848C315.662 156.624 315.882 156.304 316.002 155.888H317.178C317.002 156.56 316.65 157.1 316.122 157.508C315.594 157.908 314.934 158.108 314.142 158.108C313.518 158.108 312.962 157.968 312.474 157.688C311.994 157.408 311.618 157.012 311.346 156.5C311.074 155.988 310.938 155.388 310.938 154.7ZM324.467 151.424V158H323.375V157.028C323.167 157.364 322.875 157.628 322.499 157.82C322.131 158.004 321.723 158.096 321.275 158.096C320.763 158.096 320.303 157.992 319.895 157.784C319.487 157.568 319.163 157.248 318.923 156.824C318.691 156.4 318.575 155.884 318.575 155.276V151.424H319.655V155.132C319.655 155.78 319.819 156.28 320.147 156.632C320.475 156.976 320.923 157.148 321.491 157.148C322.075 157.148 322.535 156.968 322.871 156.608C323.207 156.248 323.375 155.724 323.375 155.036V151.424H324.467ZM327.403 152.492C327.595 152.116 327.867 151.824 328.219 151.616C328.579 151.408 329.015 151.304 329.527 151.304V152.432H329.239C328.015 152.432 327.403 153.096 327.403 154.424V158H326.311V151.424H327.403V152.492ZM336.787 154.46C336.787 154.668 336.775 154.888 336.751 155.12H331.495C331.535 155.768 331.755 156.276 332.155 156.644C332.563 157.004 333.055 157.184 333.631 157.184C334.103 157.184 334.495 157.076 334.807 156.86C335.127 156.636 335.351 156.34 335.479 155.972H336.655C336.479 156.604 336.127 157.12 335.599 157.52C335.071 157.912 334.415 158.108 333.631 158.108C333.007 158.108 332.447 157.968 331.951 157.688C331.463 157.408 331.079 157.012 330.799 156.5C330.519 155.98 330.379 155.38 330.379 154.7C330.379 154.02 330.515 153.424 330.787 152.912C331.059 152.4 331.439 152.008 331.927 151.736C332.423 151.456 332.991 151.316 333.631 151.316C334.255 151.316 334.807 151.452 335.287 151.724C335.767 151.996 336.135 152.372 336.391 152.852C336.655 153.324 336.787 153.86 336.787 154.46ZM335.659 154.232C335.659 153.816 335.567 153.46 335.383 153.164C335.199 152.86 334.947 152.632 334.627 152.48C334.315 152.32 333.967 152.24 333.583 152.24C333.031 152.24 332.559 152.416 332.167 152.768C331.783 153.12 331.563 153.608 331.507 154.232H335.659Z" fill="#444444"/>
<defs>
<filter id="filter0_d_10_743" x="0" y="0" width="134" height="180" filterUnits="userSpaceOnUse" color-interpolation-filters="sRGB">
<feFlood flood-opacity="0" result="BackgroundImageFix"/>
<feColorMatrix in="SourceAlpha" type="matrix" values="0 0 0 0 0 0 0 0 0 0 0 0 0 0 0 0 0 0 127 0" result="hardAlpha"/>
<feOffset/>
<feGaussianBlur stdDeviation="5.5"/>
<feComposite in2="hardAlpha" operator="out"/>
<feColorMatrix type="matrix" values="0 0 0 0 0 0 0 0 0 0 0 0 0 0 0 0 0 0 0.08 0"/>
<feBlend mode="normal" in2="BackgroundImageFix" result="effect1_dropShadow_10_743"/>
<feBlend mode="normal" in="SourceGraphic" in2="effect1_dropShadow_10_743" result="shape"/>
</filter>
<filter id="filter1_d_10_743" x="126" y="0" width="134" height="180" filterUnits="userSpaceOnUse" color-interpolation-filters="sRGB">
<feFlood flood-opacity="0" result="BackgroundImageFix"/>
<feColorMatrix in="SourceAlpha" type="matrix" values="0 0 0 0 0 0 0 0 0 0 0 0 0 0 0 0 0 0 127 0" result="hardAlpha"/>
<feOffset/>
<feGaussianBlur stdDeviation="5.5"/>
<feComposite in2="hardAlpha" operator="out"/>
<feColorMatrix type="matrix" values="0 0 0 0 0 0 0 0 0 0 0 0 0 0 0 0 0 0 0.08 0"/>
<feBlend mode="normal" in2="BackgroundImageFix" result="effect1_dropShadow_10_743"/>
<feBlend mode="normal" in="SourceGraphic" in2="effect1_dropShadow_10_743" result="shape"/>
</filter>
<filter id="filter2_d_10_743" x="252" y="0" width="134" height="180" filterUnits="userSpaceOnUse" color-interpolation-filters="sRGB">
<feFlood flood-opacity="0" result="BackgroundImageFix"/>
<feColorMatrix in="SourceAlpha" type="matrix" values="0 0 0 0 0 0 0 0 0 0 0 0 0 0 0 0 0 0 127 0" result="hardAlpha"/>
<feOffset/>
<feGaussianBlur stdDeviation="5.5"/>
<feComposite in2="hardAlpha" operator="out"/>
<feColorMatrix type="matrix" values="0 0 0 0 0 0 0 0 0 0 0 0 0 0 0 0 0 0 0.08 0"/>
<feBlend mode="normal" in2="BackgroundImageFix" result="effect1_dropShadow_10_743"/>
<feBlend mode="normal" in="SourceGraphic" in2="effect1_dropShadow_10_743" result="shape"/>
</filter>
<linearGradient id="paint0_linear_10_743" x1="56.3045" y1="47.623" x2="77.6379" y2="79.623" gradientUnits="userSpaceOnUse">
<stop stop-color="#B4E6FF"/>
<stop offset="1" stop-color="#017DB9"/>
</linearGradient>
<linearGradient id="paint1_linear_10_743" x1="51.6667" y1="36.9565" x2="85.5217" y2="101.884" gradientUnits="userSpaceOnUse">
<stop stop-color="#B4E6FF"/>
<stop offset="1" stop-color="#017DB9"/>
</linearGradient>
<linearGradient id="paint2_linear_10_743" x1="311.3" y1="54.606" x2="322.397" y2="72.4578" gradientUnits="userSpaceOnUse">
<stop stop-color="#B4E6FF"/>
<stop offset="1" stop-color="#2493C9"/>
</linearGradient>
<linearGradient id="paint3_linear_10_743" x1="303.097" y1="37.2372" x2="338.318" y2="104.785" gradientUnits="userSpaceOnUse">
<stop stop-color="#B4E6FF"/>
<stop offset="1" stop-color="#017DB9"/>
</linearGradient>
<linearGradient id="paint4_linear_10_743" x1="177.097" y1="37.2372" x2="212.318" y2="104.785" gradientUnits="userSpaceOnUse">
<stop stop-color="#B4E6FF"/>
<stop offset="1" stop-color="#017DB9"/>
</linearGradient>
<linearGradient id="paint5_linear_10_743" x1="203.244" y1="74.4576" x2="188.684" y2="51.8089" gradientUnits="userSpaceOnUse">
<stop stop-color="#017DB9"/>
<stop offset="1" stop-color="#8DD0F1"/>
</linearGradient>
<linearGradient id="paint6_linear_10_743" x1="181.233" y1="58.2986" x2="194.275" y2="77.8626" gradientUnits="userSpaceOnUse">
<stop stop-color="#B4E6FF"/>
<stop offset="1" stop-color="#017DB9"/>
</linearGradient>
</defs>
</svg>
