<svg width="93" height="116" viewBox="0 0 93 116" fill="none" xmlns="http://www.w3.org/2000/svg">
<path d="M31.765 55.6106L31.7649 55.6107L31.7715 55.6178L41.1463 65.6124L41.3538 65.8336L41.566 65.6169L65.7497 40.93L65.7516 40.928C66.2546 40.4051 66.9256 40.2524 67.6261 40.3003C68.4959 40.3598 69.0332 40.777 69.355 41.2703C69.6853 41.7765 69.7891 42.3661 69.7639 42.7354C69.7317 43.2055 69.5006 43.7562 69.1078 44.0966L69.0991 44.1042L69.091 44.1124L42.9408 70.7048C42.9404 70.7052 42.94 70.7056 42.9396 70.706C42.207 71.4309 41.3264 71.4632 41.1617 71.4519C40.4611 71.404 39.928 71.1692 39.6015 70.7013L39.5899 70.6848L39.5762 70.67L28.3955 58.6167L28.3873 58.6079L28.3784 58.5997C27.9566 58.2146 27.7957 57.6586 27.8432 56.9635C27.9278 55.7262 28.9519 54.7504 30.2925 54.8421C30.8485 54.8801 31.4048 55.2 31.765 55.6106Z" fill="url(#paint0_linear_0_721)" stroke="#1F769F" stroke-width="0.581421"/>
<path d="M83.772 20.803C83.2814 20.0877 82.5893 19.5618 81.7161 19.2198L81.7162 19.2197L81.7086 19.2169L48.0089 6.76249C47.5543 6.57535 47.0597 6.48487 46.5303 6.48487C46.0009 6.48487 45.5062 6.57535 45.0517 6.76249L11.352 19.2169L11.352 19.2168L11.3445 19.2198C10.4711 19.5619 9.77885 20.0879 9.28823 20.8035C8.79685 21.514 8.55136 22.315 8.55136 23.1941V49.9894C8.55136 62.6341 12.1244 74.1355 19.2679 84.4824C26.4103 94.8276 35.4568 101.74 46.4053 105.197L46.5303 105.236L46.6553 105.197C57.6038 101.74 66.6503 94.8276 73.7926 84.4824C80.9362 74.1355 84.5092 62.6341 84.5092 49.9894V23.1941C84.5092 22.3148 84.2636 21.5137 83.772 20.803ZM83.772 20.803C83.7723 20.8034 83.7726 20.8038 83.7729 20.8042L83.4303 21.039M83.772 20.803C83.772 20.8029 83.7719 20.8028 83.7718 20.8027L83.4303 21.039M83.4303 21.039C83.8727 21.6785 84.0939 22.3968 84.0939 23.1941V49.9894C84.0939 62.5503 80.5462 73.9693 73.4509 84.2464C66.3555 94.5236 57.382 101.375 46.5303 104.801L45.203 7.14932C45.6037 6.98322 46.0461 6.90018 46.5303 6.90018C47.0145 6.90018 47.4569 6.98322 47.8575 7.14932L81.5646 19.6064C82.3702 19.922 82.9921 20.3995 83.4303 21.039ZM43.13 109.658L43.1277 109.657C30.8862 105.017 21.1625 97.1516 13.9477 86.0506C6.7281 74.9423 3.12136 62.9247 3.12136 49.9894V23.3124C3.12136 21.2633 3.70653 19.4255 4.87827 17.7863L4.87866 17.7857C6.05029 16.1411 7.56439 14.9528 9.42816 14.2142L43.1341 1.75982C43.1346 1.75965 43.1351 1.75947 43.1356 1.7593C44.3147 1.33362 45.4455 1.12429 46.5303 1.12429C47.615 1.12429 48.748 1.3336 49.9315 1.75937C49.932 1.75957 49.9326 1.75977 49.9332 1.75997L83.6319 14.214C85.4919 14.9568 87.0064 16.1453 88.1823 17.7863C89.3541 19.4255 89.9392 21.2633 89.9392 23.3124V49.9894C89.9392 62.9247 86.3325 74.9423 79.1129 86.0506C71.8981 97.1516 62.1764 105.017 49.9391 109.657L49.9389 109.657C49.4199 109.854 48.8604 110.003 48.2592 110.103C47.6531 110.203 47.077 110.253 46.5303 110.253C45.9879 110.253 45.4116 110.203 44.801 110.103C44.1958 110.003 43.6392 109.854 43.13 109.658Z" fill="url(#paint1_linear_0_721)" stroke="#2077A0" stroke-width="0.830602"/>
<defs>
<linearGradient id="paint0_linear_0_721" x1="34.5772" y1="41.3444" x2="52.9037" y2="70.8262" gradientUnits="userSpaceOnUse">
<stop stop-color="#B4E6FF"/>
<stop offset="1" stop-color="#2493C9"/>
</linearGradient>
<linearGradient id="paint1_linear_0_721" x1="21.0326" y1="12.6611" x2="79.1993" y2="124.214" gradientUnits="userSpaceOnUse">
<stop stop-color="#B4E6FF"/>
<stop offset="1" stop-color="#017DB9"/>
</linearGradient>
</defs>
</svg>
