<svg width="92" height="116" viewBox="0 0 92 116" fill="none" xmlns="http://www.w3.org/2000/svg">
<path d="M42.1317 114.295L42.1295 114.294C29.3652 109.456 19.2261 101.255 11.7033 89.6801C4.17564 78.0978 0.414874 65.5671 0.414874 52.0796V24.2712C0.414874 22.1315 1.02599 20.2122 2.2496 18.5004L2.24999 18.4999C3.47331 16.7826 5.05442 15.5418 7.0005 14.7706L42.1365 1.78782C42.1369 1.78765 42.1374 1.78748 42.1379 1.7873C43.3687 1.34295 44.5496 1.12429 45.6827 1.12429C46.8157 1.12429 47.9988 1.34294 49.2341 1.78737C49.2347 1.78757 49.2353 1.78778 49.2358 1.78798L84.3644 14.7704C86.3064 15.546 87.8879 16.7871 89.1157 18.5004C90.3393 20.2122 90.9504 22.1315 90.9504 24.2712V52.0796C90.9504 65.5671 87.1897 78.0978 79.662 89.6801C72.1392 101.255 62.0022 109.457 49.2423 114.294L49.2421 114.294C48.6999 114.5 48.1155 114.656 47.4877 114.76C46.8552 114.865 46.2536 114.917 45.6827 114.917C45.1162 114.917 44.5145 114.865 43.8771 114.76C43.2452 114.656 42.6639 114.5 42.1317 114.295ZM45.5576 109.612L45.6827 109.651L45.8077 109.612C57.2164 106.01 66.6435 98.8069 74.0869 88.0257C81.5314 77.2429 85.2549 65.2571 85.2549 52.0796V24.1478C85.2549 23.2352 85.0002 22.404 84.4904 21.6665C83.9811 20.9235 83.2623 20.377 82.3545 20.0213L82.3545 20.0212L82.347 20.0184L47.2175 7.03566C46.746 6.84148 46.2326 6.74748 45.6827 6.74748C45.1327 6.74748 44.6193 6.84148 44.1478 7.03566L9.01833 20.0184L9.0183 20.0184L9.0108 20.0213C8.10328 20.3768 7.38465 20.9231 6.87545 21.6658C6.3653 22.4035 6.11043 23.2349 6.11043 24.1478V52.0796C6.11043 65.2571 9.83393 77.2429 17.2784 88.0257C24.7218 98.8069 34.1489 106.01 45.5576 109.612Z" fill="url(#paint0_linear_0_712)" stroke="#2178A1" stroke-width="0.830602"/>
<path d="M60.7704 43.4043L55.5495 38.1835C54.7142 37.3481 53.6004 36.8608 52.417 36.8608H39.7477C37.2417 36.8608 35.2925 38.8796 35.2925 41.316V51.4938C35.2925 51.4938 36.824 50.7976 38.6339 51.4938L38.7035 41.3856C38.7035 40.7591 39.1908 40.2718 39.8173 40.2718H50.9552V45.7711C50.9552 47.0241 51.9297 47.9987 53.1827 47.9987H58.6821V68.0469C58.6821 68.6734 58.1252 69.1607 57.5683 69.1607H48.2752L48.2056 72.502H57.5683C60.0047 72.502 62.0234 70.5529 62.0234 68.0469V46.5369C62.093 45.3535 61.6058 44.2397 60.7704 43.4043Z" fill="url(#paint1_linear_0_712)"/>
<path d="M44.2476 63.0319V63.1549H44.3706H45.193C45.6285 63.1549 45.9207 63.2388 46.1196 63.3754C46.3163 63.5104 46.4365 63.7072 46.5084 63.9647C46.5811 64.2252 46.6024 64.5407 46.6041 64.9027C46.605 65.083 46.6011 65.2722 46.597 65.47L46.5967 65.4814C46.5926 65.6752 46.5884 65.8766 46.5884 66.0826V73.7094C46.5884 73.9154 46.5926 74.1169 46.5967 74.3106L46.597 74.3221C46.6011 74.5198 46.605 74.7091 46.6041 74.8893C46.6024 75.2514 46.5811 75.5669 46.5084 75.8273C46.4365 76.0849 46.3163 76.2816 46.1196 76.4167C45.9207 76.5533 45.6285 76.6371 45.193 76.6371H28.7442C28.2952 76.6371 27.9966 76.553 27.7954 76.4163C27.5971 76.2816 27.4787 76.0855 27.4099 75.8286C27.3403 75.5684 27.3237 75.2531 27.3259 74.8907C27.3269 74.7274 27.3316 74.5568 27.3366 74.3791C27.3371 74.3604 27.3376 74.3417 27.3382 74.3229C27.3436 74.1254 27.3489 73.9198 27.3489 73.7094V66.0826C27.3489 65.8663 27.3436 65.6563 27.3382 65.4555C27.3376 65.4352 27.3371 65.4149 27.3365 65.3948C27.3316 65.2156 27.3269 65.0445 27.3259 64.8813C27.3237 64.5165 27.3403 64.2029 27.4098 63.9459C27.4784 63.6925 27.5963 63.5011 27.7943 63.3698C27.9955 63.2363 28.2945 63.1549 28.7442 63.1549H29.5667H29.6897V63.0319V59.2185C29.6897 55.5288 32.916 52.4774 36.9686 52.4774C40.9704 52.4774 44.2476 55.5293 44.2476 59.2185V63.0319ZM41.0808 63.1549H41.2038V63.0319V59.2185C41.2038 57.0447 39.2894 55.2822 36.9686 55.2822C34.5955 55.2822 32.7334 57.0456 32.7334 59.2185V63.0319V63.1549H32.8564H41.0808Z" fill="url(#paint2_linear_0_712)" stroke="#2279A2" stroke-width="0.245986"/>
<defs>
<linearGradient id="paint0_linear_0_712" x1="19.1034" y1="13.168" x2="79.7373" y2="129.452" gradientUnits="userSpaceOnUse">
<stop stop-color="#B4E6FF"/>
<stop offset="1" stop-color="#017DB9"/>
</linearGradient>
<linearGradient id="paint1_linear_0_712" x1="64.1191" y1="77.2436" x2="39.0539" y2="38.2534" gradientUnits="userSpaceOnUse">
<stop stop-color="#017DB9"/>
<stop offset="1" stop-color="#8DD0F1"/>
</linearGradient>
<linearGradient id="paint2_linear_0_712" x1="26.2265" y1="49.4257" x2="48.6797" y2="83.1056" gradientUnits="userSpaceOnUse">
<stop stop-color="#B4E6FF"/>
<stop offset="1" stop-color="#017DB9"/>
</linearGradient>
</defs>
</svg>
