<svg width="88" height="111" viewBox="0 0 88 111" fill="none" xmlns="http://www.w3.org/2000/svg">
<path d="M55.7427 53.3026V53.582H56.0221H57.3674C58.0705 53.582 58.5309 53.7175 58.8387 53.9289C59.1412 54.1366 59.3293 54.4405 59.4435 54.8493C59.5595 55.2648 59.5943 55.7722 59.5972 56.363C59.5986 56.6566 59.5923 56.9651 59.5855 57.2887L59.5851 57.3077C59.5784 57.6244 59.5714 57.9547 59.5714 58.2925V70.7673C59.5714 71.1051 59.5784 71.4354 59.5851 71.7521L59.5855 71.771C59.5923 72.0947 59.5986 72.4032 59.5972 72.6968C59.5943 73.2875 59.5595 73.7949 59.4435 74.2104C59.3293 74.6192 59.1412 74.9231 58.8387 75.1309C58.5309 75.3422 58.0705 75.4777 57.3674 75.4777H30.4628C29.7371 75.4777 29.2662 75.3416 28.9549 75.1301C28.65 74.923 28.465 74.6207 28.356 74.2133C28.2449 73.7984 28.2175 73.2916 28.2212 72.6999C28.2228 72.4336 28.2305 72.1556 28.2387 71.8647C28.2395 71.8342 28.2404 71.8036 28.2412 71.7729C28.2502 71.4498 28.2587 71.1126 28.2587 70.7673V58.2925C28.2587 57.9375 28.2502 57.593 28.2412 57.2646C28.2403 57.2313 28.2394 57.1982 28.2385 57.1653C28.2304 56.8721 28.2228 56.5931 28.2212 56.327C28.2175 55.7313 28.245 55.2274 28.3558 54.8179C28.4643 54.4167 28.6483 54.122 28.9523 53.9204C29.2637 53.7139 29.7354 53.582 30.4628 53.582H31.808H32.0875V53.3026V47.0652C32.0875 41.0784 37.3244 36.1173 43.9151 36.1173C50.423 36.1173 55.7427 41.0796 55.7427 47.0652V53.3026ZM50.6412 53.582H50.9207V53.3026V47.0652C50.9207 43.4608 47.7486 40.5484 43.9151 40.5484C39.9952 40.5484 36.9095 43.463 36.9095 47.0652V53.3026V53.582H37.1889H50.6412Z" fill="url(#paint0_linear_0_705)" stroke="#2279A2" stroke-width="0.558872"/>
<path d="M32.7344 60.1261C32.7344 58.8033 33.8067 57.731 35.1295 57.731H52.694C54.0168 57.731 55.0892 58.8033 55.0892 60.1261V68.9083C55.0892 70.2312 54.0168 71.3035 52.694 71.3035H35.1295C33.8067 71.3035 32.7344 70.2312 32.7344 68.9083V60.1261Z" fill="#2178A1"/>
<path d="M81.2128 20.8523C80.7233 20.1388 80.0327 19.6139 79.1607 19.2723L79.1607 19.2722L79.1535 19.2695L45.3866 6.79027C44.9333 6.60362 44.4398 6.51327 43.9112 6.51327C43.3826 6.51327 42.8891 6.60362 42.4359 6.79027L8.66895 19.2695L8.66892 19.2694L8.66172 19.2723C7.78939 19.614 7.09864 20.1391 6.60918 20.853C6.11882 21.562 5.87384 22.3612 5.87384 23.2387V50.0872C5.87384 62.7535 9.45292 74.2744 16.6087 84.639C23.7633 95.002 32.8248 101.926 43.791 105.388L43.9112 105.426L44.0314 105.388C54.9976 101.926 64.0591 95.002 71.2137 84.639C78.3695 74.2744 81.9486 62.7535 81.9486 50.0872V23.2387C81.9486 22.3609 81.7034 21.5615 81.2128 20.8523ZM81.2128 20.8523C81.2131 20.8528 81.2134 20.8532 81.2137 20.8537L80.8844 21.0794M81.2128 20.8523C81.2127 20.8523 81.2127 20.8522 81.2127 20.8522L80.8844 21.0794M80.8844 21.0794C81.3277 21.7201 81.5494 22.4399 81.5494 23.2387V50.0872C81.5494 62.673 77.9947 74.1147 70.8852 84.4122C63.7758 94.7097 54.7845 101.575 43.9112 105.007L42.5813 7.1621C42.9828 6.99567 43.4261 6.91246 43.9112 6.91246C44.3963 6.91246 44.8396 6.99567 45.2411 7.1621L79.0151 19.6439C79.8222 19.9601 80.4453 20.4386 80.8844 21.0794ZM40.498 109.89L40.4959 109.889C28.2266 105.239 18.4808 97.3552 11.2498 86.2292C4.01409 75.0961 0.399194 63.0515 0.399194 50.0872V23.3573C0.399194 21.3006 0.986604 19.4557 2.16275 17.8103L2.16313 17.8098C3.339 16.1592 4.85878 14.9665 6.72937 14.2252L40.5025 1.74598C40.503 1.74581 40.5035 1.74564 40.504 1.74547C41.687 1.31836 42.8221 1.10818 43.9112 1.10818C45.0003 1.10818 46.1376 1.31836 47.325 1.74556C47.3255 1.74575 47.326 1.74594 47.3266 1.74613L81.0925 14.225C82.9593 14.9705 84.4795 16.1634 85.6597 17.8103C86.8358 19.4557 87.4232 21.3006 87.4232 23.3573V50.0872C87.4232 63.0515 83.8083 75.0961 76.5726 86.2292C69.3416 97.3552 59.5978 105.239 47.3328 109.889L47.3326 109.889C46.8114 110.087 46.2497 110.236 45.6463 110.336C45.0382 110.437 44.46 110.487 43.9112 110.487C43.3667 110.487 42.7884 110.437 42.1757 110.336C41.5683 110.236 41.0095 110.087 40.498 109.89Z" fill="url(#paint1_linear_0_705)" stroke="#2178A1" stroke-width="0.798388"/>
<defs>
<linearGradient id="paint0_linear_0_705" x1="26.3446" y1="31.0476" x2="63.0704" y2="86.1362" gradientUnits="userSpaceOnUse">
<stop stop-color="#B4E6FF"/>
<stop offset="1" stop-color="#017DB9"/><svg width="1430" height="1512" viewBox="0 0 1430 1512" fill="none" xmlns="http://www.w3.org/2000/svg">
<rect width="1430" height="1512" fill="url(#paint0_linear_0_669)"/>
<defs>
<linearGradient id="paint0_linear_0_669" x1="715" y1="0" x2="715" y2="1512" gradientUnits="userSpaceOnUse">
<stop stop-color="#017DB9"/>
<stop offset="1" stop-color="#003853"/>
</linearGradient>
</defs>
</svg>

</linearGradient>
<linearGradient id="paint1_linear_0_705" x1="18.3629" y1="12.6848" x2="76.645" y2="124.459" gradientUnits="userSpaceOnUse">
<stop stop-color="#B4E6FF"/>
<stop offset="1" stop-color="#017DB9"/>
</linearGradient>
</defs>
</svg>
