<svg width="27" height="26" viewBox="0 0 27 26" fill="none" xmlns="http://www.w3.org/2000/svg">
<rect width="27" height="26" rx="13" fill="white"/>
<mask id="path-2-outside-1_21_262" maskUnits="userSpaceOnUse" x="4" y="4" width="13" height="14" fill="black">
<rect fill="white" x="4" y="4" width="13" height="14"/>
<path d="M16.664 5.16V6.568H14.712V17H13.048V12.072L10.84 12.056C10.9467 12.3653 11 12.6907 11 13.032C11 13.96 10.7013 14.7067 10.104 15.272C9.50667 15.8373 8.71733 16.12 7.736 16.12C7.032 16.12 6.40267 15.9813 5.848 15.704C5.304 15.4267 4.87733 15.0427 4.568 14.552C4.26933 14.0507 4.12 13.48 4.12 12.84H5.688C5.688 13.3733 5.864 13.816 6.216 14.168C6.57867 14.5093 7.048 14.68 7.624 14.68C8.18933 14.68 8.63733 14.5147 8.968 14.184C9.29867 13.8533 9.464 13.416 9.464 12.872C9.464 12.5627 9.40533 12.2907 9.288 12.056H9.256V11.976C8.91467 11.368 8.312 11.064 7.448 11.064H6.792V9.704H7.448C8.03467 9.704 8.488 9.54933 8.808 9.24C9.13867 8.92 9.304 8.54133 9.304 8.104C9.304 7.60267 9.13867 7.20267 8.808 6.904C8.488 6.59467 8.08267 6.44 7.592 6.44C7.08 6.44 6.648 6.58933 6.296 6.888C5.95467 7.176 5.784 7.56533 5.784 8.056H4.232C4.232 7.448 4.37067 6.91467 4.648 6.456C4.936 5.99733 5.336 5.64533 5.848 5.4C6.36 5.144 6.94133 5.016 7.592 5.016C8.552 5.016 9.32533 5.27733 9.912 5.8C10.5093 6.32267 10.808 7.016 10.808 7.88C10.808 8.488 10.648 9.01067 10.328 9.448C10.008 9.87467 9.544 10.168 8.936 10.328V10.36C9.23467 10.424 9.512 10.5307 9.768 10.68H13.048V5.16H16.664Z"/>
</mask>
<path d="M16.664 5.16V6.568H14.712V17H13.048V12.072L10.84 12.056C10.9467 12.3653 11 12.6907 11 13.032C11 13.96 10.7013 14.7067 10.104 15.272C9.50667 15.8373 8.71733 16.12 7.736 16.12C7.032 16.12 6.40267 15.9813 5.848 15.704C5.304 15.4267 4.87733 15.0427 4.568 14.552C4.26933 14.0507 4.12 13.48 4.12 12.84H5.688C5.688 13.3733 5.864 13.816 6.216 14.168C6.57867 14.5093 7.048 14.68 7.624 14.68C8.18933 14.68 8.63733 14.5147 8.968 14.184C9.29867 13.8533 9.464 13.416 9.464 12.872C9.464 12.5627 9.40533 12.2907 9.288 12.056H9.256V11.976C8.91467 11.368 8.312 11.064 7.448 11.064H6.792V9.704H7.448C8.03467 9.704 8.488 9.54933 8.808 9.24C9.13867 8.92 9.304 8.54133 9.304 8.104C9.304 7.60267 9.13867 7.20267 8.808 6.904C8.488 6.59467 8.08267 6.44 7.592 6.44C7.08 6.44 6.648 6.58933 6.296 6.888C5.95467 7.176 5.784 7.56533 5.784 8.056H4.232C4.232 7.448 4.37067 6.91467 4.648 6.456C4.936 5.99733 5.336 5.64533 5.848 5.4C6.36 5.144 6.94133 5.016 7.592 5.016C8.552 5.016 9.32533 5.27733 9.912 5.8C10.5093 6.32267 10.808 7.016 10.808 7.88C10.808 8.488 10.648 9.01067 10.328 9.448C10.008 9.87467 9.544 10.168 8.936 10.328V10.36C9.23467 10.424 9.512 10.5307 9.768 10.68H13.048V5.16H16.664Z" fill="#444444"/>
<path d="M16.664 5.16H16.764V5.06H16.664V5.16ZM16.664 6.568V6.668H16.764V6.568H16.664ZM14.712 6.568V6.468H14.612V6.568H14.712ZM14.712 17V17.1H14.812V17H14.712ZM13.048 17H12.948V17.1H13.048V17ZM13.048 12.072H13.148V11.9727L13.0487 11.972L13.048 12.072ZM10.84 12.056L10.8407 11.956L10.6994 11.955L10.7455 12.0886L10.84 12.056ZM10.104 15.272L10.1727 15.3446L10.104 15.272ZM5.848 15.704L5.80258 15.7931L5.80328 15.7934L5.848 15.704ZM4.568 14.552L4.48206 14.6032L4.48341 14.6053L4.568 14.552ZM4.12 12.84V12.74H4.02V12.84H4.12ZM5.688 12.84H5.788V12.74H5.688V12.84ZM6.216 14.168L6.14526 14.2387L6.14746 14.2408L6.216 14.168ZM8.968 14.184L9.03871 14.2547L8.968 14.184ZM9.288 12.056L9.37744 12.0113L9.3498 11.956H9.288V12.056ZM9.256 12.056H9.156V12.156H9.256V12.056ZM9.256 11.976H9.356V11.9498L9.3432 11.927L9.256 11.976ZM6.792 11.064H6.692V11.164H6.792V11.064ZM6.792 9.704V9.604H6.692V9.704H6.792ZM8.808 9.24L8.8775 9.3119L8.87754 9.31186L8.808 9.24ZM8.808 6.904L8.73846 6.97594L8.74097 6.97821L8.808 6.904ZM6.296 6.888L6.36049 6.96443L6.3607 6.96425L6.296 6.888ZM5.784 8.056V8.156H5.884V8.056H5.784ZM4.232 8.056H4.132V8.156H4.232V8.056ZM4.648 6.456L4.5633 6.40281L4.56243 6.40426L4.648 6.456ZM5.848 5.4L5.89122 5.49019L5.89272 5.48944L5.848 5.4ZM9.912 5.8L9.84548 5.87467L9.84615 5.87526L9.912 5.8ZM10.328 9.448L10.408 9.508L10.4087 9.50705L10.328 9.448ZM8.936 10.328L8.91055 10.2313L8.836 10.2509V10.328H8.936ZM8.936 10.36H8.836V10.4408L8.91505 10.4578L8.936 10.36ZM9.768 10.68L9.71761 10.7664L9.74097 10.78H9.768V10.68ZM13.048 10.68V10.78H13.148V10.68H13.048ZM13.048 5.16V5.06H12.948V5.16H13.048ZM16.564 5.16V6.568H16.764V5.16H16.564ZM16.664 6.468H14.712V6.668H16.664V6.468ZM14.612 6.568V17H14.812V6.568H14.612ZM14.712 16.9H13.048V17.1H14.712V16.9ZM13.148 17V12.072H12.948V17H13.148ZM13.0487 11.972L10.8407 11.956L10.8393 12.156L13.0473 12.172L13.0487 11.972ZM10.7455 12.0886C10.8484 12.387 10.9 12.7013 10.9 13.032H11.1C11.1 12.6801 11.045 12.3437 10.9345 12.0234L10.7455 12.0886ZM10.9 13.032C10.9 13.9364 10.61 14.6554 10.0353 15.1994L10.1727 15.3446C10.7927 14.7579 11.1 13.9836 11.1 13.032H10.9ZM10.0353 15.1994C9.45999 15.7438 8.69702 16.02 7.736 16.02V16.22C8.73765 16.22 9.55334 15.9308 10.1727 15.3446L10.0353 15.1994ZM7.736 16.02C7.04541 16.02 6.43173 15.8841 5.89272 15.6146L5.80328 15.7934C6.3736 16.0786 7.01859 16.22 7.736 16.22V16.02ZM5.89342 15.6149C5.36458 15.3453 4.95181 14.9733 4.65259 14.4987L4.48341 14.6053C4.80286 15.112 5.24342 15.508 5.80258 15.7931L5.89342 15.6149ZM4.65391 14.5008C4.36534 14.0164 4.22 13.4638 4.22 12.84H4.02C4.02 13.4962 4.17332 14.0849 4.48209 14.6032L4.65391 14.5008ZM4.12 12.94H5.688V12.74H4.12V12.94ZM5.588 12.84C5.588 13.3978 5.7731 13.8665 6.14529 14.2387L6.28671 14.0973C5.9549 13.7655 5.788 13.3489 5.788 12.84H5.588ZM6.14746 14.2408C6.53158 14.6023 7.0268 14.78 7.624 14.78V14.58C7.0692 14.58 6.62576 14.4163 6.28454 14.0952L6.14746 14.2408ZM7.624 14.78C8.20994 14.78 8.68548 14.6079 9.03871 14.2547L8.89729 14.1133C8.58918 14.4214 8.16873 14.58 7.624 14.58V14.78ZM9.03871 14.2547C9.3912 13.9022 9.564 13.4378 9.564 12.872H9.364C9.364 13.3942 9.20613 13.8044 8.89729 14.1133L9.03871 14.2547ZM9.564 12.872C9.564 12.5499 9.50286 12.2621 9.37744 12.0113L9.19856 12.1007C9.30781 12.3192 9.364 12.5754 9.364 12.872H9.564ZM9.288 11.956H9.256V12.156H9.288V11.956ZM9.356 12.056V11.976H9.156V12.056H9.356ZM9.3432 11.927C8.9797 11.2796 8.338 10.964 7.448 10.964V11.164C8.286 11.164 8.84964 11.4564 9.1688 12.025L9.3432 11.927ZM7.448 10.964H6.792V11.164H7.448V10.964ZM6.892 11.064V9.704H6.692V11.064H6.892ZM6.792 9.804H7.448V9.604H6.792V9.804ZM7.448 9.804C8.05209 9.804 8.53352 9.64442 8.8775 9.3119L8.7385 9.1681C8.44248 9.45425 8.01725 9.604 7.448 9.604V9.804ZM8.87754 9.31186C9.22654 8.97412 9.404 8.56996 9.404 8.104H9.204C9.204 8.5127 9.05079 8.86588 8.73846 9.16814L8.87754 9.31186ZM9.404 8.104C9.404 7.57831 9.22944 7.1499 8.87503 6.82979L8.74097 6.97821C9.0479 7.25543 9.204 7.62703 9.204 8.104H9.404ZM8.8775 6.8321C8.53687 6.50282 8.1057 6.34 7.592 6.34V6.54C8.05963 6.54 8.43913 6.68651 8.7385 6.9759L8.8775 6.8321ZM7.592 6.34C7.05907 6.34 6.60338 6.49605 6.2313 6.81175L6.3607 6.96425C6.69262 6.68262 7.10093 6.54 7.592 6.54V6.34ZM6.23151 6.81157C5.86526 7.12059 5.684 7.53916 5.684 8.056H5.884C5.884 7.59151 6.04407 7.23141 6.36049 6.96443L6.23151 6.81157ZM5.784 7.956H4.232V8.156H5.784V7.956ZM4.332 8.056C4.332 7.46373 4.4669 6.94879 4.73357 6.50774L4.56243 6.40426C4.27444 6.88055 4.132 7.43226 4.132 8.056H4.332ZM4.73269 6.50918C5.01014 6.06731 5.39539 5.72776 5.89121 5.49018L5.80479 5.30982C5.27661 5.5629 4.86186 5.92736 4.56331 6.40282L4.73269 6.50918ZM5.89272 5.48944C6.38905 5.24128 6.95472 5.116 7.592 5.116V4.916C6.92794 4.916 6.33096 5.04672 5.80328 5.31056L5.89272 5.48944ZM7.592 5.116C8.53316 5.116 9.28097 5.37174 9.84548 5.87467L9.97852 5.72533C9.36969 5.18292 8.57084 4.916 7.592 4.916V5.116ZM9.84615 5.87526C10.4197 6.37712 10.708 7.04196 10.708 7.88H10.908C10.908 6.99004 10.599 6.26821 9.97785 5.72474L9.84615 5.87526ZM10.708 7.88C10.708 8.46948 10.5532 8.97082 10.2473 9.38895L10.4087 9.50705C10.7428 9.05052 10.908 8.50652 10.908 7.88H10.708ZM10.248 9.388C9.94385 9.79354 9.50081 10.076 8.91055 10.2313L8.96145 10.4247C9.58719 10.26 10.0722 9.95579 10.408 9.508L10.248 9.388ZM8.836 10.328V10.36H9.036V10.328H8.836ZM8.91505 10.4578C9.20368 10.5196 9.47104 10.6225 9.71761 10.7664L9.81839 10.5936C9.55296 10.4388 9.26565 10.3284 8.95695 10.2622L8.91505 10.4578ZM9.768 10.78H13.048V10.58H9.768V10.78ZM13.148 10.68V5.16H12.948V10.68H13.148ZM13.048 5.26H16.664V5.06H13.048V5.26Z" fill="#444444" mask="url(#path-2-outside-1_21_262)"/>
<mask id="path-4-outside-2_21_262" maskUnits="userSpaceOnUse" x="13" y="8" width="11" height="13" fill="black">
<rect fill="white" x="13" y="8" width="11" height="13"/>
<path d="M20.904 17.728H16.248L15.448 20H13.544L17.528 8.864H19.64L23.624 20H21.704L20.904 17.728ZM20.392 16.24L18.584 11.072L16.76 16.24H20.392Z"/>
</mask>
<path d="M20.904 17.728H16.248L15.448 20H13.544L17.528 8.864H19.64L23.624 20H21.704L20.904 17.728ZM20.392 16.24L18.584 11.072L16.76 16.24H20.392Z" fill="#444444"/>
<path d="M20.904 17.728L20.9983 17.6948L20.9748 17.628H20.904V17.728ZM16.248 17.728V17.628H16.1772L16.1537 17.6948L16.248 17.728ZM15.448 20V20.1H15.5188L15.5423 20.0332L15.448 20ZM13.544 20L13.4498 19.9663L13.402 20.1H13.544V20ZM17.528 8.864V8.764H17.4576L17.4338 8.83031L17.528 8.864ZM19.64 8.864L19.7342 8.83031L19.7104 8.764H19.64V8.864ZM23.624 20V20.1H23.766L23.7182 19.9663L23.624 20ZM21.704 20L21.6097 20.0332L21.6332 20.1H21.704V20ZM20.392 16.24V16.34H20.5329L20.4864 16.207L20.392 16.24ZM18.584 11.072L18.6784 11.039L18.5844 10.7704L18.4897 11.0387L18.584 11.072ZM16.76 16.24L16.6657 16.2067L16.6187 16.34H16.76V16.24ZM20.904 17.628H16.248V17.828H20.904V17.628ZM16.1537 17.6948L15.3537 19.9668L15.5423 20.0332L16.3423 17.7612L16.1537 17.6948ZM15.448 19.9H13.544V20.1H15.448V19.9ZM13.6382 20.0337L17.6222 8.89768L17.4338 8.83031L13.4498 19.9663L13.6382 20.0337ZM17.528 8.964H19.64V8.764H17.528V8.964ZM19.5458 8.89768L23.5298 20.0337L23.7182 19.9663L19.7342 8.83031L19.5458 8.89768ZM23.624 19.9H21.704V20.1H23.624V19.9ZM21.7983 19.9668L20.9983 17.6948L20.8097 17.7612L21.6097 20.0332L21.7983 19.9668ZM20.4864 16.207L18.6784 11.039L18.4896 11.105L20.2976 16.273L20.4864 16.207ZM18.4897 11.0387L16.6657 16.2067L16.8543 16.2733L18.6783 11.1053L18.4897 11.0387ZM16.76 16.34H20.392V16.14H16.76V16.34Z" fill="#444444" mask="url(#path-4-outside-2_21_262)"/>
<rect x="17.3291" y="5.20752" width="1.48407" height="17" transform="rotate(19.7796 17.3291 5.20752)" fill="white"/>
</svg>
