<svg width="26" height="26" viewBox="0 0 26 26" fill="none" xmlns="http://www.w3.org/2000/svg">
<path fill-rule="evenodd" clip-rule="evenodd" d="M3.1997e-07 17.68C3.69218e-07 18.2543 0.465624 18.72 1.04 18.72L9.36 18.72L9.36 16.64L2.08 16.64L2.08 9.35997L-3.93402e-07 9.35997L3.1997e-07 17.68Z" fill="#D72C27"/>
<path fill-rule="evenodd" clip-rule="evenodd" d="M17.6802 26C18.2546 26 18.7202 25.5344 18.7202 24.96L18.7202 16.64L16.6402 16.64L16.6402 23.92L9.36022 23.92L9.36022 26L17.6802 26Z" fill="#017DB9"/>
<path fill-rule="evenodd" clip-rule="evenodd" d="M26 8.32003C26 7.74565 25.5344 7.28003 24.96 7.28003L16.64 7.28003L16.64 9.36003L23.92 9.36003L23.92 16.64L26 16.64L26 8.32003Z" fill="#F3BA1A"/>
<path fill-rule="evenodd" clip-rule="evenodd" d="M8.32003 3.63681e-07C7.74565 3.88788e-07 7.28003 0.465624 7.28003 1.04L7.28003 9.36H9.36003V2.08H16.64V0L8.32003 3.63681e-07Z" fill="#017DB9"/>
</svg>
